<?xml version="1.0" encoding="UTF-8"?><svg id="Layer_2" xmlns="http://www.w3.org/2000/svg" viewBox="0 0 424.66 157.45"><defs><style>.cls-1{fill:#fff;stroke-width:0px;}</style></defs><g id="artwork"><path id="IBM_" class="cls-1" d="M407.85,148.79c0-4.91,3.74-8.65,8.4-8.65s8.4,3.74,8.4,8.65-3.74,8.65-8.4,8.65-8.4-3.74-8.4-8.65ZM422.68,149.34v-1.09c0-3.53-2.77-6.3-6.43-6.3s-6.43,2.77-6.43,6.3v1.09c0,3.53,2.77,6.3,6.43,6.3s6.43-2.77,6.43-6.3ZM414.99,153.25h-2.14v-8.78h3.99c1.97,0,2.98,1.18,2.98,2.77,0,1.39-.63,2.27-1.6,2.65l1.97,3.36h-2.35l-1.64-3.02h-1.22v3.02ZM416.59,148.63c.67,0,1.05-.29,1.05-.92v-.63c0-.63-.38-.92-1.05-.92h-1.6v2.48h1.6ZM0,147h77v10H0v-10ZM0,136h77v-10H0v10ZM22,115h33v-10H22v10ZM22,94h33v-10H22v10ZM22,73h33v-10H22v10ZM55,42H22v10h33v-10ZM0,31h77v-10H0v10ZM0,10h77V0H0v10ZM88,157h81c10.37,0,19.86-3.77,27.19-10h-108.19v10ZM88,136h117.37c1.8-3.1,3.21-6.46,4.17-10h-121.54v10ZM110,115h33v-10h-33v10ZM110,63v10h87.29c3.17-2.9,5.9-6.26,8.07-10h-95.36ZM209.54,31c-.96-3.54-2.37-6.9-4.17-10h-117.37v10h121.54ZM110,52h33v-10h-33v10ZM174,52h35.78c.78-3.21,1.22-6.55,1.22-10h-37v10ZM174,105v10h37c0-3.45-.44-6.79-1.22-10h-35.78ZM197.29,84h-87.29v10h95.36c-2.17-3.74-4.9-7.1-8.07-10ZM196.19,10C188.86,3.77,179.37,0,169,0h0s-81,0-81,0v10h108.19ZM220,157h55v-10h-55v10ZM220,136h55v-10h-55v10ZM242,115h33v-10h-33v10ZM242,94h33v-10h-33v10ZM341,157h55v-10h-55v10ZM341,136h55v-10h-55v10ZM341,115h33v-10h-33v10ZM374,84h-33v10h33v-10ZM341,73h33v-10h-61.86l-3.47,10h28.96l3.36-9.52v9.52ZM374,42h-54.57l-3.47,10h58.04v-10ZM334,0l-3.47,10h65.47V0h-62ZM308,157l3.51-10h-7.02l3.51,10ZM300.61,136h14.79l3.53-10h-21.85l3.53,10ZM293.19,115h29.62l3.53-10h-36.68l3.53,10ZM285.78,94h44.45l3.53-10h-51.51l3.53,10ZM242,52h58.04l-3.47-10h-54.57v10ZM323.25,31h72.75v-10h-69.29l-3.47,10ZM289.29,21h-69.29v10h72.75l-3.47-10ZM282,0h-62v10h65.47l-3.47-10ZM307.33,73l-3.47-10h-61.86v10h33v-9.49l3.36,9.49h28.96Z"/></g></svg>