<svg width="348" height="18" viewBox="0 0 348 18" fill="none" xmlns="http://www.w3.org/2000/svg">
<path d="M24.1089 5.76803H24.0389L23.2129 7.40603L20.8749 11.662L18.5369 7.40603L17.7109 5.76803H17.6409V14H16.4929V4.22803H18.0609L20.8609 9.49203H20.9309L23.7449 4.22803H25.2569V14H24.1089V5.76803Z" fill="white"/>
<path d="M7.18652 4.22803H11.2045C12.0165 4.22803 12.6512 4.45669 13.1085 4.91403C13.5752 5.37136 13.8085 5.98269 13.8085 6.74803C13.8085 7.11203 13.7572 7.42003 13.6545 7.67203C13.5519 7.92403 13.4212 8.13403 13.2625 8.30203C13.1039 8.46069 12.9312 8.58203 12.7445 8.66603C12.5579 8.74069 12.3852 8.79203 12.2265 8.82003V8.90403C12.4039 8.91336 12.5999 8.96003 12.8145 9.04403C13.0385 9.12803 13.2485 9.26336 13.4445 9.45003C13.6405 9.62736 13.8039 9.86069 13.9345 10.15C14.0745 10.43 14.1445 10.7707 14.1445 11.172C14.1445 11.5734 14.0792 11.9467 13.9485 12.292C13.8272 12.6374 13.6545 12.936 13.4305 13.188C13.2065 13.44 12.9405 13.6407 12.6325 13.79C12.3245 13.93 11.9885 14 11.6245 14H7.18652V4.22803ZM8.36252 12.964H11.2605C11.7645 12.964 12.1612 12.838 12.4505 12.586C12.7399 12.3247 12.8845 11.9467 12.8845 11.452V10.976C12.8845 10.4814 12.7399 10.108 12.4505 9.85603C12.1612 9.59469 11.7645 9.46403 11.2605 9.46403H8.36252V12.964ZM8.36252 8.45603H11.0645C11.5312 8.45603 11.8952 8.33936 12.1565 8.10603C12.4179 7.87269 12.5485 7.53669 12.5485 7.09803V6.62203C12.5485 6.18336 12.4179 5.84736 12.1565 5.61403C11.8952 5.38069 11.5312 5.26403 11.0645 5.26403H8.36252V8.45603Z" fill="white"/>
<path d="M0.958984 14V13.02H2.33098V5.20803H0.958984V4.22803H4.87898V5.20803H3.50698V13.02H4.87898V14H0.958984Z" fill="white"/>
<path d="M344.136 14.1679C343.594 14.1679 343.109 14.0793 342.68 13.9019C342.26 13.7153 341.9 13.4586 341.602 13.1319C341.312 12.7959 341.088 12.3946 340.93 11.9279C340.771 11.4519 340.692 10.9199 340.692 10.3319C340.692 9.75326 340.766 9.23059 340.916 8.76393C341.074 8.29726 341.298 7.90059 341.588 7.57393C341.877 7.23793 342.232 6.98126 342.652 6.80393C343.072 6.61726 343.548 6.52393 344.08 6.52393C344.649 6.52393 345.144 6.62193 345.564 6.81793C345.984 7.01393 346.329 7.27993 346.6 7.61593C346.87 7.95193 347.071 8.34393 347.202 8.79193C347.342 9.23059 347.412 9.70193 347.412 10.2059V10.7939H342.554V10.9759C342.554 11.5079 342.703 11.9373 343.002 12.2639C343.3 12.5813 343.744 12.7399 344.332 12.7399C344.78 12.7399 345.144 12.6466 345.424 12.4599C345.713 12.2733 345.97 12.0353 346.194 11.7459L347.16 12.8239C346.861 13.2439 346.45 13.5753 345.928 13.8179C345.414 14.0513 344.817 14.1679 344.136 14.1679ZM344.108 7.86793C343.632 7.86793 343.254 8.02659 342.974 8.34393C342.694 8.66126 342.554 9.07193 342.554 9.57593V9.68793H345.55V9.56193C345.55 9.05793 345.424 8.65193 345.172 8.34393C344.929 8.02659 344.574 7.86793 344.108 7.86793Z" fill="white"/>
<path d="M328.594 13.9999V6.69193H330.386V7.90993H330.456C330.596 7.52726 330.82 7.20059 331.128 6.92993C331.436 6.65926 331.865 6.52393 332.416 6.52393C332.92 6.52393 333.354 6.64526 333.718 6.88793C334.082 7.13059 334.352 7.49926 334.53 7.99393H334.558C334.688 7.58326 334.945 7.23793 335.328 6.95793C335.72 6.66859 336.21 6.52393 336.798 6.52393C337.516 6.52393 338.067 6.77126 338.45 7.26593C338.842 7.76059 339.038 8.46526 339.038 9.37993V13.9999H337.246V9.56193C337.246 8.51659 336.854 7.99393 336.07 7.99393C335.892 7.99393 335.72 8.02193 335.552 8.07793C335.393 8.12459 335.248 8.19926 335.118 8.30193C334.996 8.39526 334.898 8.51659 334.824 8.66593C334.749 8.80593 334.712 8.97393 334.712 9.16993V13.9999H332.92V9.56193C332.92 8.51659 332.528 7.99393 331.744 7.99393C331.576 7.99393 331.408 8.02193 331.24 8.07793C331.081 8.12459 330.936 8.19926 330.806 8.30193C330.684 8.39526 330.582 8.51659 330.498 8.66593C330.423 8.80593 330.386 8.97393 330.386 9.16993V13.9999H328.594Z" fill="white"/>
<path d="M325.461 5.62815C325.087 5.62815 324.817 5.54415 324.649 5.37615C324.49 5.20815 324.411 4.99349 324.411 4.73215V4.45215C324.411 4.19082 324.49 3.97615 324.649 3.80815C324.817 3.64015 325.087 3.55615 325.461 3.55615C325.825 3.55615 326.091 3.64015 326.259 3.80815C326.427 3.97615 326.511 4.19082 326.511 4.45215V4.73215C326.511 4.99349 326.427 5.20815 326.259 5.37615C326.091 5.54415 325.825 5.62815 325.461 5.62815ZM324.565 6.69215H326.357V14.0002H324.565V6.69215Z" fill="white"/>
<path d="M321.45 13.9999C320.834 13.9999 320.363 13.8413 320.036 13.5239C319.719 13.1973 319.56 12.7353 319.56 12.1379V8.11994H318.482V6.69194H319.042C319.313 6.69194 319.495 6.63128 319.588 6.50994C319.691 6.37927 319.742 6.18794 319.742 5.93594V4.68994H321.352V6.69194H322.85V8.11994H321.352V12.5719H322.738V13.9999H321.45Z" fill="white"/>
<path d="M310.778 13.9999V6.69193H312.57V7.90993H312.64C312.789 7.51793 313.022 7.19126 313.34 6.92993C313.666 6.65926 314.114 6.52393 314.684 6.52393C315.44 6.52393 316.018 6.77126 316.42 7.26593C316.821 7.76059 317.022 8.46526 317.022 9.37993V13.9999H315.23V9.56193C315.23 9.03926 315.136 8.64726 314.95 8.38593C314.763 8.12459 314.455 7.99393 314.026 7.99393C313.839 7.99393 313.657 8.02193 313.48 8.07793C313.312 8.12459 313.158 8.19926 313.018 8.30193C312.887 8.39526 312.78 8.51659 312.696 8.66593C312.612 8.80593 312.57 8.97393 312.57 9.16993V13.9999H310.778Z" fill="white"/>
<path d="M306.755 12.7824H306.685C306.62 12.969 306.531 13.1464 306.419 13.3144C306.317 13.473 306.181 13.6177 306.013 13.7484C305.855 13.879 305.659 13.9817 305.425 14.0564C305.201 14.131 304.94 14.1684 304.641 14.1684C303.885 14.1684 303.307 13.921 302.905 13.4264C302.504 12.9317 302.303 12.227 302.303 11.3124V6.69238H304.095V11.1304C304.095 11.6344 304.193 12.0217 304.389 12.2924C304.585 12.5537 304.898 12.6844 305.327 12.6844C305.505 12.6844 305.677 12.661 305.845 12.6144C306.023 12.5677 306.177 12.4977 306.307 12.4044C306.438 12.3017 306.545 12.1804 306.629 12.0404C306.713 11.891 306.755 11.7184 306.755 11.5224V6.69238H308.547V14.0004H306.755V12.7824Z" fill="white"/>
<path d="M294.891 14H293.043V4.22803H297.453C297.901 4.22803 298.302 4.29803 298.657 4.43803C299.011 4.57803 299.31 4.78336 299.553 5.05403C299.805 5.31536 299.996 5.63269 300.127 6.00603C300.267 6.37936 300.337 6.79469 300.337 7.25203C300.337 7.92403 300.183 8.50269 299.875 8.98803C299.576 9.47336 299.123 9.81869 298.517 10.024L300.519 14H298.461L296.641 10.234H294.891V14ZM297.271 8.68003C297.625 8.68003 297.905 8.58669 298.111 8.40003C298.316 8.20403 298.419 7.92869 298.419 7.57403V6.93003C298.419 6.57536 298.316 6.30469 298.111 6.11803C297.905 5.93136 297.625 5.83803 297.271 5.83803H294.891V8.68003H297.271Z" fill="white"/>
<path d="M284.71 14.1679C284.01 14.1679 283.422 14.0513 282.946 13.8179C282.47 13.5753 282.05 13.2439 281.686 12.8239L282.778 11.7599C283.048 12.0679 283.342 12.3106 283.66 12.4879C283.986 12.6653 284.36 12.7539 284.78 12.7539C285.209 12.7539 285.517 12.6793 285.704 12.5299C285.9 12.3806 285.998 12.1753 285.998 11.9139C285.998 11.6993 285.928 11.5313 285.788 11.4099C285.657 11.2793 285.428 11.1906 285.102 11.1439L284.374 11.0459C283.58 10.9433 282.974 10.7193 282.554 10.3739C282.143 10.0193 281.938 9.50593 281.938 8.83393C281.938 8.47926 282.003 8.16193 282.134 7.88193C282.264 7.59259 282.451 7.34993 282.694 7.15393C282.936 6.94859 283.226 6.79459 283.562 6.69193C283.907 6.57993 284.29 6.52393 284.71 6.52393C285.064 6.52393 285.377 6.55193 285.648 6.60793C285.928 6.65459 286.18 6.72926 286.404 6.83193C286.628 6.92526 286.833 7.04659 287.02 7.19593C287.206 7.33593 287.388 7.49459 287.566 7.67193L286.516 8.72193C286.301 8.49793 286.044 8.31126 285.746 8.16193C285.447 8.01259 285.12 7.93793 284.766 7.93793C284.374 7.93793 284.089 8.00793 283.912 8.14793C283.744 8.28793 283.66 8.46993 283.66 8.69393C283.66 8.93659 283.73 9.12326 283.87 9.25393C284.019 9.37526 284.266 9.46393 284.612 9.51993L285.354 9.61793C286.931 9.84193 287.72 10.5606 287.72 11.7739C287.72 12.1286 287.645 12.4553 287.496 12.7539C287.356 13.0433 287.155 13.2953 286.894 13.5099C286.632 13.7153 286.315 13.8786 285.942 13.9999C285.578 14.1119 285.167 14.1679 284.71 14.1679Z" fill="white"/>
<path d="M277.303 14.1679C276.762 14.1679 276.276 14.0793 275.847 13.9019C275.427 13.7153 275.068 13.4586 274.769 13.1319C274.48 12.7959 274.256 12.3946 274.097 11.9279C273.938 11.4519 273.859 10.9199 273.859 10.3319C273.859 9.75326 273.934 9.23059 274.083 8.76393C274.242 8.29726 274.466 7.90059 274.755 7.57393C275.044 7.23793 275.399 6.98126 275.819 6.80393C276.239 6.61726 276.715 6.52393 277.247 6.52393C277.816 6.52393 278.311 6.62193 278.731 6.81793C279.151 7.01393 279.496 7.27993 279.767 7.61593C280.038 7.95193 280.238 8.34393 280.369 8.79193C280.509 9.23059 280.579 9.70193 280.579 10.2059V10.7939H275.721V10.9759C275.721 11.5079 275.87 11.9373 276.169 12.2639C276.468 12.5813 276.911 12.7399 277.499 12.7399C277.947 12.7399 278.311 12.6466 278.591 12.4599C278.88 12.2733 279.137 12.0353 279.361 11.7459L280.327 12.8239C280.028 13.2439 279.618 13.5753 279.095 13.8179C278.582 14.0513 277.984 14.1679 277.303 14.1679ZM277.275 7.86793C276.799 7.86793 276.421 8.02659 276.141 8.34393C275.861 8.66126 275.721 9.07193 275.721 9.57593V9.68793H278.717V9.56193C278.717 9.05793 278.591 8.65193 278.339 8.34393C278.096 8.02659 277.742 7.86793 277.275 7.86793Z" fill="white"/>
<path d="M269.964 14.1679C269.422 14.1679 268.942 14.0793 268.522 13.9019C268.102 13.7246 267.747 13.4679 267.458 13.1319C267.178 12.7959 266.963 12.3946 266.814 11.9279C266.664 11.4519 266.59 10.9199 266.59 10.3319C266.59 9.74393 266.664 9.21659 266.814 8.74993C266.963 8.28326 267.178 7.88659 267.458 7.55993C267.747 7.22393 268.102 6.96726 268.522 6.78993C268.942 6.61259 269.422 6.52393 269.964 6.52393C270.701 6.52393 271.308 6.68726 271.784 7.01393C272.269 7.34059 272.619 7.79326 272.834 8.37193L271.364 9.02993C271.28 8.72193 271.121 8.46993 270.888 8.27393C270.664 8.06859 270.356 7.96593 269.964 7.96593C269.46 7.96593 269.082 8.12459 268.83 8.44193C268.587 8.75926 268.466 9.17459 268.466 9.68793V11.0179C268.466 11.5313 268.587 11.9466 268.83 12.2639C269.082 12.5719 269.46 12.7259 269.964 12.7259C270.393 12.7259 270.724 12.6186 270.958 12.4039C271.191 12.1799 271.373 11.9046 271.504 11.5779L272.876 12.2359C272.633 12.8799 272.264 13.3653 271.77 13.6919C271.275 14.0093 270.673 14.1679 269.964 14.1679Z" fill="white"/>
<path d="M263.946 5.62815C263.573 5.62815 263.302 5.54415 263.134 5.37615C262.976 5.20815 262.896 4.99349 262.896 4.73215V4.45215C262.896 4.19082 262.976 3.97615 263.134 3.80815C263.302 3.64015 263.573 3.55615 263.946 3.55615C264.31 3.55615 264.576 3.64015 264.744 3.80815C264.912 3.97615 264.996 4.19082 264.996 4.45215V4.73215C264.996 4.99349 264.912 5.20815 264.744 5.37615C264.576 5.54415 264.31 5.62815 263.946 5.62815ZM263.05 6.69215H264.842V14.0002H263.05V6.69215Z" fill="white"/>
<path d="M257.117 14.0004L254.681 6.69238H256.445L257.467 9.84238L258.181 12.4464H258.279L258.993 9.84238L259.987 6.69238H261.695L259.245 14.0004H257.117Z" fill="white"/>
<path d="M249.783 14.0004V6.69238H251.575V8.20438H251.645C251.692 8.00838 251.762 7.82172 251.855 7.64438C251.958 7.45772 252.088 7.29438 252.247 7.15438C252.406 7.01438 252.592 6.90238 252.807 6.81838C253.031 6.73438 253.288 6.69238 253.577 6.69238H253.969V8.38638H253.409C252.802 8.38638 252.345 8.47505 252.037 8.65238C251.729 8.82972 251.575 9.11905 251.575 9.52038V14.0004H249.783Z" fill="white"/>
<path d="M244.771 14.1679C244.229 14.1679 243.744 14.0793 243.315 13.9019C242.895 13.7153 242.535 13.4586 242.237 13.1319C241.947 12.7959 241.723 12.3946 241.565 11.9279C241.406 11.4519 241.327 10.9199 241.327 10.3319C241.327 9.75326 241.401 9.23059 241.551 8.76393C241.709 8.29726 241.933 7.90059 242.223 7.57393C242.512 7.23793 242.867 6.98126 243.287 6.80393C243.707 6.61726 244.183 6.52393 244.715 6.52393C245.284 6.52393 245.779 6.62193 246.199 6.81793C246.619 7.01393 246.964 7.27993 247.235 7.61593C247.505 7.95193 247.706 8.34393 247.837 8.79193C247.977 9.23059 248.047 9.70193 248.047 10.2059V10.7939H243.189V10.9759C243.189 11.5079 243.338 11.9373 243.637 12.2639C243.935 12.5813 244.379 12.7399 244.967 12.7399C245.415 12.7399 245.779 12.6466 246.059 12.4599C246.348 12.2733 246.605 12.0353 246.829 11.7459L247.795 12.8239C247.496 13.2439 247.085 13.5753 246.563 13.8179C246.049 14.0513 245.452 14.1679 244.771 14.1679ZM244.743 7.86793C244.267 7.86793 243.889 8.02659 243.609 8.34393C243.329 8.66126 243.189 9.07193 243.189 9.57593V9.68793H246.185V9.56193C246.185 9.05793 246.059 8.65193 245.807 8.34393C245.564 8.02659 245.209 7.86793 244.743 7.86793Z" fill="white"/>
<path d="M237.064 14.1679C236.364 14.1679 235.776 14.0513 235.3 13.8179C234.824 13.5753 234.404 13.2439 234.04 12.8239L235.132 11.7599C235.403 12.0679 235.697 12.3106 236.014 12.4879C236.341 12.6653 236.714 12.7539 237.134 12.7539C237.563 12.7539 237.871 12.6793 238.058 12.5299C238.254 12.3806 238.352 12.1753 238.352 11.9139C238.352 11.6993 238.282 11.5313 238.142 11.4099C238.011 11.2793 237.783 11.1906 237.456 11.1439L236.728 11.0459C235.935 10.9433 235.328 10.7193 234.908 10.3739C234.497 10.0193 234.292 9.50593 234.292 8.83393C234.292 8.47926 234.357 8.16193 234.488 7.88193C234.619 7.59259 234.805 7.34993 235.048 7.15393C235.291 6.94859 235.58 6.79459 235.916 6.69193C236.261 6.57993 236.644 6.52393 237.064 6.52393C237.419 6.52393 237.731 6.55193 238.002 6.60793C238.282 6.65459 238.534 6.72926 238.758 6.83193C238.982 6.92526 239.187 7.04659 239.374 7.19593C239.561 7.33593 239.743 7.49459 239.92 7.67193L238.87 8.72193C238.655 8.49793 238.399 8.31126 238.1 8.16193C237.801 8.01259 237.475 7.93793 237.12 7.93793C236.728 7.93793 236.443 8.00793 236.266 8.14793C236.098 8.28793 236.014 8.46993 236.014 8.69393C236.014 8.93659 236.084 9.12326 236.224 9.25393C236.373 9.37526 236.621 9.46393 236.966 9.51993L237.708 9.61793C239.285 9.84193 240.074 10.5606 240.074 11.7739C240.074 12.1286 239.999 12.4553 239.85 12.7539C239.71 13.0433 239.509 13.2953 239.248 13.5099C238.987 13.7153 238.669 13.8786 238.296 13.9999C237.932 14.1119 237.521 14.1679 237.064 14.1679Z" fill="white"/>
<path d="M229.52 14.1679C228.997 14.1679 228.526 14.0793 228.106 13.9019C227.695 13.7246 227.34 13.4679 227.042 13.1319C226.752 12.7959 226.528 12.3946 226.37 11.9279C226.211 11.4519 226.132 10.9199 226.132 10.3319C226.132 9.74393 226.211 9.21659 226.37 8.74993C226.528 8.28326 226.752 7.88659 227.042 7.55993C227.34 7.22393 227.695 6.96726 228.106 6.78993C228.526 6.61259 228.997 6.52393 229.52 6.52393C230.042 6.52393 230.514 6.61259 230.934 6.78993C231.354 6.96726 231.708 7.22393 231.998 7.55993C232.296 7.88659 232.525 8.28326 232.684 8.74993C232.842 9.21659 232.922 9.74393 232.922 10.3319C232.922 10.9199 232.842 11.4519 232.684 11.9279C232.525 12.3946 232.296 12.7959 231.998 13.1319C231.708 13.4679 231.354 13.7246 230.934 13.9019C230.514 14.0793 230.042 14.1679 229.52 14.1679ZM229.52 12.7259C229.996 12.7259 230.369 12.5813 230.64 12.2919C230.91 12.0026 231.046 11.5779 231.046 11.0179V9.65993C231.046 9.10926 230.91 8.68926 230.64 8.39993C230.369 8.11059 229.996 7.96593 229.52 7.96593C229.053 7.96593 228.684 8.11059 228.414 8.39993C228.143 8.68926 228.008 9.10926 228.008 9.65993V11.0179C228.008 11.5779 228.143 12.0026 228.414 12.2919C228.684 12.5813 229.053 12.7259 229.52 12.7259Z" fill="white"/>
<path d="M221.034 14.0004V6.69238H222.826V8.20438H222.896C222.942 8.00838 223.012 7.82172 223.106 7.64438C223.208 7.45772 223.339 7.29438 223.498 7.15438C223.656 7.01438 223.843 6.90238 224.058 6.81838C224.282 6.73438 224.538 6.69238 224.828 6.69238H225.22V8.38638H224.66C224.053 8.38638 223.596 8.47505 223.288 8.65238C222.98 8.82972 222.826 9.11905 222.826 9.52038V14.0004H221.034Z" fill="white"/>
<path d="M216.58 14.1679C216.039 14.1679 215.558 14.0793 215.138 13.9019C214.718 13.7246 214.363 13.4679 214.074 13.1319C213.794 12.7959 213.579 12.3946 213.43 11.9279C213.281 11.4519 213.206 10.9199 213.206 10.3319C213.206 9.74393 213.281 9.21659 213.43 8.74993C213.579 8.28326 213.794 7.88659 214.074 7.55993C214.363 7.22393 214.718 6.96726 215.138 6.78993C215.558 6.61259 216.039 6.52393 216.58 6.52393C217.317 6.52393 217.924 6.68726 218.4 7.01393C218.885 7.34059 219.235 7.79326 219.45 8.37193L217.98 9.02993C217.896 8.72193 217.737 8.46993 217.504 8.27393C217.28 8.06859 216.972 7.96593 216.58 7.96593C216.076 7.96593 215.698 8.12459 215.446 8.44193C215.203 8.75926 215.082 9.17459 215.082 9.68793V11.0179C215.082 11.5313 215.203 11.9466 215.446 12.2639C215.698 12.5719 216.076 12.7259 216.58 12.7259C217.009 12.7259 217.341 12.6186 217.574 12.4039C217.807 12.1799 217.989 11.9046 218.12 11.5779L219.492 12.2359C219.249 12.8799 218.881 13.3653 218.386 13.6919C217.891 14.0093 217.289 14.1679 216.58 14.1679Z" fill="white"/>
<path d="M210.563 5.62815C210.19 5.62815 209.919 5.54415 209.751 5.37615C209.592 5.20815 209.513 4.99349 209.513 4.73215V4.45215C209.513 4.19082 209.592 3.97615 209.751 3.80815C209.919 3.64015 210.19 3.55615 210.563 3.55615C210.927 3.55615 211.193 3.64015 211.361 3.80815C211.529 3.97615 211.613 4.19082 211.613 4.45215V4.73215C211.613 4.99349 211.529 5.20815 211.361 5.37615C211.193 5.54415 210.927 5.62815 210.563 5.62815ZM209.667 6.69215H211.459V14.0002H209.667V6.69215Z" fill="white"/>
<path d="M205.567 6.98603H205.511L204.755 8.54003L202.753 12.236L200.751 8.54003L199.995 6.98603H199.939V14H198.189V4.22803H200.275L202.781 9.00203H202.837L205.315 4.22803H207.317V14H205.567V6.98603Z" fill="white"/>
<path d="M186.218 13.9999V6.69193H188.01V7.90993H188.08C188.229 7.51793 188.463 7.19126 188.78 6.92993C189.107 6.65926 189.555 6.52393 190.124 6.52393C190.88 6.52393 191.459 6.77126 191.86 7.26593C192.261 7.76059 192.462 8.46526 192.462 9.37993V13.9999H190.67V9.56193C190.67 9.03926 190.577 8.64726 190.39 8.38593C190.203 8.12459 189.895 7.99393 189.466 7.99393C189.279 7.99393 189.097 8.02193 188.92 8.07793C188.752 8.12459 188.598 8.19926 188.458 8.30193C188.327 8.39526 188.22 8.51659 188.136 8.66593C188.052 8.80593 188.01 8.97393 188.01 9.16993V13.9999H186.218Z" fill="white"/>
<path d="M181.068 14.1679C180.545 14.1679 180.074 14.0793 179.654 13.9019C179.243 13.7246 178.888 13.4679 178.589 13.1319C178.3 12.7959 178.076 12.3946 177.917 11.9279C177.759 11.4519 177.68 10.9199 177.68 10.3319C177.68 9.74393 177.759 9.21659 177.917 8.74993C178.076 8.28326 178.3 7.88659 178.589 7.55993C178.888 7.22393 179.243 6.96726 179.654 6.78993C180.074 6.61259 180.545 6.52393 181.068 6.52393C181.59 6.52393 182.062 6.61259 182.482 6.78993C182.902 6.96726 183.256 7.22393 183.546 7.55993C183.844 7.88659 184.073 8.28326 184.232 8.74993C184.39 9.21659 184.469 9.74393 184.469 10.3319C184.469 10.9199 184.39 11.4519 184.232 11.9279C184.073 12.3946 183.844 12.7959 183.546 13.1319C183.256 13.4679 182.902 13.7246 182.482 13.9019C182.062 14.0793 181.59 14.1679 181.068 14.1679ZM181.068 12.7259C181.544 12.7259 181.917 12.5813 182.188 12.2919C182.458 12.0026 182.594 11.5779 182.594 11.0179V9.65993C182.594 9.10926 182.458 8.68926 182.188 8.39993C181.917 8.11059 181.544 7.96593 181.068 7.96593C180.601 7.96593 180.232 8.11059 179.962 8.39993C179.691 8.68926 179.555 9.10926 179.555 9.65993V11.0179C179.555 11.5779 179.691 12.0026 179.962 12.2919C180.232 12.5813 180.601 12.7259 181.068 12.7259Z" fill="white"/>
<path d="M175.036 5.62815C174.663 5.62815 174.392 5.54415 174.224 5.37615C174.066 5.20815 173.986 4.99349 173.986 4.73215V4.45215C173.986 4.19082 174.066 3.97615 174.224 3.80815C174.392 3.64015 174.663 3.55615 175.036 3.55615C175.4 3.55615 175.666 3.64015 175.834 3.80815C176.002 3.97615 176.086 4.19082 176.086 4.45215V4.73215C176.086 4.99349 176.002 5.20815 175.834 5.37615C175.666 5.54415 175.4 5.62815 175.036 5.62815ZM174.14 6.69215H175.932V14.0002H174.14V6.69215Z" fill="white"/>
<path d="M171.026 13.9999C170.41 13.9999 169.939 13.8413 169.612 13.5239C169.295 13.1973 169.136 12.7353 169.136 12.1379V8.11994H168.058V6.69194H168.618C168.889 6.69194 169.071 6.63128 169.164 6.50994C169.267 6.37927 169.318 6.18794 169.318 5.93594V4.68994H170.928V6.69194H172.426V8.11994H170.928V12.5719H172.314V13.9999H171.026Z" fill="white"/>
<path d="M166.194 13.9999C165.802 13.9999 165.49 13.8879 165.256 13.6639C165.032 13.4306 164.892 13.1226 164.836 12.7399H164.752C164.631 13.2159 164.384 13.5753 164.01 13.8179C163.637 14.0513 163.175 14.1679 162.624 14.1679C161.878 14.1679 161.304 13.9719 160.902 13.5799C160.501 13.1879 160.3 12.6653 160.3 12.0119C160.3 11.2559 160.571 10.6959 161.112 10.3319C161.654 9.95859 162.424 9.77193 163.422 9.77193H164.668V9.23993C164.668 8.82926 164.561 8.51193 164.346 8.28793C164.132 8.06393 163.786 7.95193 163.31 7.95193C162.89 7.95193 162.55 8.04526 162.288 8.23193C162.036 8.40926 161.822 8.62393 161.644 8.87593L160.58 7.92393C160.851 7.50393 161.21 7.16793 161.658 6.91593C162.106 6.65459 162.699 6.52393 163.436 6.52393C164.426 6.52393 165.177 6.74793 165.69 7.19593C166.204 7.64393 166.46 8.28793 166.46 9.12793V12.5719H167.188V13.9999H166.194ZM163.226 12.8659C163.628 12.8659 163.968 12.7773 164.248 12.5999C164.528 12.4226 164.668 12.1613 164.668 11.8159V10.8499H163.52C162.587 10.8499 162.12 11.1486 162.12 11.7459V11.9839C162.12 12.2826 162.214 12.5066 162.4 12.6559C162.596 12.7959 162.872 12.8659 163.226 12.8659Z" fill="white"/>
<path d="M155.313 14.0004V6.69238H157.105V8.20438H157.175C157.221 8.00838 157.291 7.82172 157.385 7.64438C157.487 7.45772 157.618 7.29438 157.777 7.15438C157.935 7.01438 158.122 6.90238 158.337 6.81838C158.561 6.73438 158.817 6.69238 159.107 6.69238H159.499V8.38638H158.939C158.332 8.38638 157.875 8.47505 157.567 8.65238C157.259 8.82972 157.105 9.11905 157.105 9.52038V14.0004H155.313Z" fill="white"/>
<path d="M154.118 14.6163C154.118 14.999 154.048 15.335 153.908 15.6243C153.777 15.923 153.558 16.1703 153.25 16.3663C152.942 16.5623 152.545 16.7116 152.06 16.8143C151.574 16.917 150.982 16.9683 150.282 16.9683C149.666 16.9683 149.143 16.9263 148.714 16.8423C148.284 16.7676 147.93 16.6556 147.65 16.5063C147.379 16.3663 147.183 16.189 147.062 15.9743C146.94 15.7596 146.88 15.517 146.88 15.2463C146.88 14.8356 146.992 14.5136 147.216 14.2803C147.449 14.0563 147.771 13.9116 148.182 13.8463V13.6923C147.883 13.6176 147.65 13.473 147.482 13.2583C147.323 13.0343 147.244 12.773 147.244 12.4743C147.244 12.2876 147.281 12.1243 147.356 11.9843C147.43 11.835 147.528 11.709 147.65 11.6063C147.78 11.5036 147.925 11.4196 148.084 11.3543C148.242 11.2796 148.41 11.2236 148.588 11.1863V11.1303C148.14 10.925 147.804 10.6403 147.58 10.2763C147.365 9.9123 147.258 9.48763 147.258 9.0023C147.258 8.25563 147.514 7.6583 148.028 7.2103C148.541 6.75296 149.292 6.5243 150.282 6.5243C150.506 6.5243 150.725 6.5383 150.94 6.5663C151.164 6.5943 151.369 6.64096 151.556 6.7063V6.4683C151.556 5.75896 151.901 5.4043 152.592 5.4043H153.726V6.7763H152.172V6.9723C152.554 7.18696 152.839 7.46696 153.026 7.8123C153.212 8.15763 153.306 8.5543 153.306 9.0023C153.306 9.73963 153.049 10.3323 152.536 10.7803C152.032 11.2283 151.28 11.4523 150.282 11.4523C149.852 11.4523 149.479 11.4103 149.162 11.3263C149.022 11.3916 148.9 11.4803 148.798 11.5923C148.695 11.695 148.644 11.8256 148.644 11.9843C148.644 12.3483 148.961 12.5303 149.596 12.5303H151.556C152.452 12.5303 153.1 12.717 153.502 13.0903C153.912 13.4543 154.118 13.963 154.118 14.6163ZM152.438 14.8263C152.438 14.593 152.344 14.411 152.158 14.2803C151.971 14.1496 151.649 14.0843 151.192 14.0843H148.7C148.448 14.271 148.322 14.523 148.322 14.8403C148.322 15.1203 148.438 15.3396 148.672 15.4983C148.905 15.657 149.302 15.7363 149.862 15.7363H150.758C151.346 15.7363 151.77 15.6616 152.032 15.5123C152.302 15.363 152.438 15.1343 152.438 14.8263ZM150.282 10.2343C151.159 10.2343 151.598 9.86096 151.598 9.1143V8.8763C151.598 8.12963 151.159 7.7563 150.282 7.7563C149.404 7.7563 148.966 8.12963 148.966 8.8763V9.1143C148.966 9.86096 149.404 10.2343 150.282 10.2343Z" fill="white"/>
<path d="M142.511 14.1679C141.97 14.1679 141.484 14.0793 141.055 13.9019C140.635 13.7153 140.276 13.4586 139.977 13.1319C139.688 12.7959 139.464 12.3946 139.305 11.9279C139.146 11.4519 139.067 10.9199 139.067 10.3319C139.067 9.75326 139.142 9.23059 139.291 8.76393C139.45 8.29726 139.674 7.90059 139.963 7.57393C140.252 7.23793 140.607 6.98126 141.027 6.80393C141.447 6.61726 141.923 6.52393 142.455 6.52393C143.024 6.52393 143.519 6.62193 143.939 6.81793C144.359 7.01393 144.704 7.27993 144.975 7.61593C145.246 7.95193 145.446 8.34393 145.577 8.79193C145.717 9.23059 145.787 9.70193 145.787 10.2059V10.7939H140.929V10.9759C140.929 11.5079 141.078 11.9373 141.377 12.2639C141.676 12.5813 142.119 12.7399 142.707 12.7399C143.155 12.7399 143.519 12.6466 143.799 12.4599C144.088 12.2733 144.345 12.0353 144.569 11.7459L145.535 12.8239C145.236 13.2439 144.826 13.5753 144.303 13.8179C143.79 14.0513 143.192 14.1679 142.511 14.1679ZM142.483 7.86793C142.007 7.86793 141.629 8.02659 141.349 8.34393C141.069 8.66126 140.929 9.07193 140.929 9.57593V9.68793H143.925V9.56193C143.925 9.05793 143.799 8.65193 143.547 8.34393C143.304 8.02659 142.95 7.86793 142.483 7.86793Z" fill="white"/>
<path d="M136.497 13.9999C135.881 13.9999 135.41 13.8413 135.083 13.5239C134.766 13.1973 134.607 12.7353 134.607 12.1379V8.11994H133.529V6.69194H134.089C134.36 6.69194 134.542 6.63128 134.635 6.50994C134.738 6.37927 134.789 6.18794 134.789 5.93594V4.68994H136.399V6.69194H137.897V8.11994H136.399V12.5719H137.785V13.9999H136.497Z" fill="white"/>
<path d="M125.825 13.9999V6.69193H127.617V7.90993H127.687C127.836 7.51793 128.07 7.19126 128.387 6.92993C128.714 6.65926 129.162 6.52393 129.731 6.52393C130.487 6.52393 131.066 6.77126 131.467 7.26593C131.868 7.76059 132.069 8.46526 132.069 9.37993V13.9999H130.277V9.56193C130.277 9.03926 130.184 8.64726 129.997 8.38593C129.81 8.12459 129.502 7.99393 129.073 7.99393C128.886 7.99393 128.704 8.02193 128.527 8.07793C128.359 8.12459 128.205 8.19926 128.065 8.30193C127.934 8.39526 127.827 8.51659 127.743 8.66593C127.659 8.80593 127.617 8.97393 127.617 9.16993V13.9999H125.825Z" fill="white"/>
<path d="M119.451 14V12.516H120.739V5.71203H119.451V4.22803H123.889V5.71203H122.587V12.516H123.889V14H119.451Z" fill="white"/>
<path d="M111.524 14.1679C110.824 14.1679 110.236 14.0513 109.76 13.8179C109.284 13.5753 108.864 13.2439 108.5 12.8239L109.592 11.7599C109.863 12.0679 110.157 12.3106 110.474 12.4879C110.801 12.6653 111.174 12.7539 111.594 12.7539C112.024 12.7539 112.332 12.6793 112.518 12.5299C112.714 12.3806 112.812 12.1753 112.812 11.9139C112.812 11.6993 112.742 11.5313 112.602 11.4099C112.472 11.2793 112.243 11.1906 111.916 11.1439L111.188 11.0459C110.395 10.9433 109.788 10.7193 109.368 10.3739C108.958 10.0193 108.752 9.50593 108.752 8.83393C108.752 8.47926 108.818 8.16193 108.948 7.88193C109.079 7.59259 109.266 7.34993 109.508 7.15393C109.751 6.94859 110.04 6.79459 110.376 6.69193C110.722 6.57993 111.104 6.52393 111.524 6.52393C111.879 6.52393 112.192 6.55193 112.462 6.60793C112.742 6.65459 112.994 6.72926 113.218 6.83193C113.442 6.92526 113.648 7.04659 113.834 7.19593C114.021 7.33593 114.203 7.49459 114.38 7.67193L113.33 8.72193C113.116 8.49793 112.859 8.31126 112.56 8.16193C112.262 8.01259 111.935 7.93793 111.58 7.93793C111.188 7.93793 110.904 8.00793 110.726 8.14793C110.558 8.28793 110.474 8.46993 110.474 8.69393C110.474 8.93659 110.544 9.12326 110.684 9.25393C110.834 9.37526 111.081 9.46393 111.426 9.51993L112.168 9.61793C113.746 9.84193 114.534 10.5606 114.534 11.7739C114.534 12.1286 114.46 12.4553 114.31 12.7539C114.17 13.0433 113.97 13.2953 113.708 13.5099C113.447 13.7153 113.13 13.8786 112.756 13.9999C112.392 14.1119 111.982 14.1679 111.524 14.1679Z" fill="white"/>
<path d="M105.112 12.7821H105.042C104.911 13.2021 104.664 13.5381 104.3 13.7901C103.936 14.0421 103.511 14.1681 103.026 14.1681C102.102 14.1681 101.392 13.8368 100.898 13.1741C100.412 12.5115 100.17 11.5641 100.17 10.3321C100.17 9.10947 100.412 8.17147 100.898 7.51814C101.392 6.85547 102.102 6.52414 103.026 6.52414C103.511 6.52414 103.936 6.65014 104.3 6.90214C104.664 7.1448 104.911 7.47614 105.042 7.89614H105.112V3.64014H106.904V14.0001H105.112V12.7821ZM103.6 12.6841C104.029 12.6841 104.388 12.5815 104.678 12.3761C104.967 12.1708 105.112 11.8768 105.112 11.4941V9.17014C105.112 8.81547 104.967 8.5308 104.678 8.31614C104.388 8.10147 104.029 7.99414 103.6 7.99414C103.133 7.99414 102.755 8.1528 102.466 8.47014C102.186 8.77814 102.046 9.19347 102.046 9.71614V10.9761C102.046 11.4988 102.186 11.9141 102.466 12.2221C102.755 12.5301 103.133 12.6841 103.6 12.6841Z" fill="white"/>
<path d="M95.425 14.1679C94.9023 14.1679 94.431 14.0793 94.011 13.9019C93.6003 13.7246 93.2457 13.4679 92.947 13.1319C92.6577 12.7959 92.4337 12.3946 92.275 11.9279C92.1163 11.4519 92.037 10.9199 92.037 10.3319C92.037 9.74393 92.1163 9.21659 92.275 8.74993C92.4337 8.28326 92.6577 7.88659 92.947 7.55993C93.2457 7.22393 93.6003 6.96726 94.011 6.78993C94.431 6.61259 94.9023 6.52393 95.425 6.52393C95.9477 6.52393 96.419 6.61259 96.839 6.78993C97.259 6.96726 97.6137 7.22393 97.903 7.55993C98.2017 7.88659 98.4303 8.28326 98.589 8.74993C98.7477 9.21659 98.827 9.74393 98.827 10.3319C98.827 10.9199 98.7477 11.4519 98.589 11.9279C98.4303 12.3946 98.2017 12.7959 97.903 13.1319C97.6137 13.4679 97.259 13.7246 96.839 13.9019C96.419 14.0793 95.9477 14.1679 95.425 14.1679ZM95.425 12.7259C95.901 12.7259 96.2743 12.5813 96.545 12.2919C96.8156 12.0026 96.951 11.5779 96.951 11.0179V9.65993C96.951 9.10926 96.8156 8.68926 96.545 8.39993C96.2743 8.11059 95.901 7.96593 95.425 7.96593C94.9583 7.96593 94.5897 8.11059 94.319 8.39993C94.0483 8.68926 93.913 9.10926 93.913 9.65993V11.0179C93.913 11.5779 94.0483 12.0026 94.319 12.2919C94.5897 12.5813 94.9583 12.7259 95.425 12.7259Z" fill="white"/>
<path d="M84.1365 3.64014H85.9285V7.91014H85.9985C86.1478 7.51814 86.3811 7.19147 86.6985 6.93014C87.0251 6.65947 87.4731 6.52414 88.0425 6.52414C88.7985 6.52414 89.3771 6.77147 89.7785 7.26614C90.1798 7.7608 90.3805 8.46547 90.3805 9.38014V14.0001H88.5885V9.56214C88.5885 9.03947 88.4951 8.64747 88.3085 8.38614C88.1218 8.1248 87.8138 7.99414 87.3845 7.99414C87.1978 7.99414 87.0158 8.02214 86.8385 8.07814C86.6705 8.1248 86.5165 8.19947 86.3765 8.30214C86.2458 8.39547 86.1385 8.5168 86.0545 8.66614C85.9705 8.80614 85.9285 8.97414 85.9285 9.17014V14.0001H84.1365V3.64014Z" fill="white"/>
<path d="M81.0222 13.9999C80.4062 13.9999 79.9349 13.8413 79.6082 13.5239C79.2909 13.1973 79.1322 12.7353 79.1322 12.1379V8.11994H78.0542V6.69194H78.6142C78.8849 6.69194 79.0669 6.63128 79.1602 6.50994C79.2629 6.37927 79.3142 6.18794 79.3142 5.93594V4.68994H80.9242V6.69194H82.4222V8.11994H80.9242V12.5719H82.3102V13.9999H81.0222Z" fill="white"/>
<path d="M73.7276 14.1679C73.1862 14.1679 72.7009 14.0793 72.2716 13.9019C71.8516 13.7153 71.4922 13.4586 71.1936 13.1319C70.9042 12.7959 70.6802 12.3946 70.5216 11.9279C70.3629 11.4519 70.2836 10.9199 70.2836 10.3319C70.2836 9.75326 70.3582 9.23059 70.5076 8.76393C70.6662 8.29726 70.8902 7.90059 71.1796 7.57393C71.4689 7.23793 71.8236 6.98126 72.2436 6.80393C72.6636 6.61726 73.1396 6.52393 73.6716 6.52393C74.2409 6.52393 74.7356 6.62193 75.1556 6.81793C75.5756 7.01393 75.9209 7.27993 76.1916 7.61593C76.4622 7.95193 76.6629 8.34393 76.7936 8.79193C76.9336 9.23059 77.0036 9.70193 77.0036 10.2059V10.7939H72.1456V10.9759C72.1456 11.5079 72.2949 11.9373 72.5936 12.2639C72.8922 12.5813 73.3356 12.7399 73.9236 12.7399C74.3716 12.7399 74.7356 12.6466 75.0156 12.4599C75.3049 12.2733 75.5616 12.0353 75.7856 11.7459L76.7516 12.8239C76.4529 13.2439 76.0422 13.5753 75.5196 13.8179C75.0062 14.0513 74.4089 14.1679 73.7276 14.1679ZM73.6996 7.86793C73.2236 7.86793 72.8456 8.02659 72.5656 8.34393C72.2856 8.66126 72.1456 9.07193 72.1456 9.57593V9.68793H75.1416V9.56193C75.1416 9.05793 75.0156 8.65193 74.7636 8.34393C74.5209 8.02659 74.1662 7.86793 73.6996 7.86793Z" fill="white"/>
<path d="M66.6739 6.98603H66.6179L65.8619 8.54003L63.8599 12.236L61.8579 8.54003L61.1019 6.98603H61.0459V14H59.2959V4.22803H61.3819L63.8879 9.00203H63.9439L66.4219 4.22803H68.4239V14H66.6739V6.98603Z" fill="white"/>
<path d="M50.6294 3.64014H52.4214V7.89614H52.4774C52.6081 7.47614 52.8554 7.1448 53.2194 6.90214C53.5834 6.65014 54.0081 6.52414 54.4934 6.52414C55.4267 6.52414 56.1361 6.85547 56.6214 7.51814C57.1161 8.17147 57.3634 9.10947 57.3634 10.3321C57.3634 11.5641 57.1161 12.5115 56.6214 13.1741C56.1361 13.8368 55.4267 14.1681 54.4934 14.1681C54.0081 14.1681 53.5834 14.0421 53.2194 13.7901C52.8647 13.5381 52.6174 13.2021 52.4774 12.7821H52.4214V14.0001H50.6294V3.64014ZM53.9194 12.6841C54.3861 12.6841 54.7641 12.5301 55.0534 12.2221C55.3427 11.9141 55.4874 11.4988 55.4874 10.9761V9.71614C55.4874 9.19347 55.3427 8.77814 55.0534 8.47014C54.7641 8.1528 54.3861 7.99414 53.9194 7.99414C53.4901 7.99414 53.1307 8.10147 52.8414 8.31614C52.5614 8.5308 52.4214 8.81547 52.4214 9.17014V11.4941C52.4214 11.8768 52.5614 12.1708 52.8414 12.3761C53.1307 12.5815 53.4901 12.6841 53.9194 12.6841Z" fill="white"/>
<path d="M45.6167 14.1679C45.0754 14.1679 44.5901 14.0793 44.1607 13.9019C43.7407 13.7153 43.3814 13.4586 43.0827 13.1319C42.7934 12.7959 42.5694 12.3946 42.4107 11.9279C42.2521 11.4519 42.1727 10.9199 42.1727 10.3319C42.1727 9.75326 42.2474 9.23059 42.3967 8.76393C42.5554 8.29726 42.7794 7.90059 43.0687 7.57393C43.3581 7.23793 43.7127 6.98126 44.1327 6.80393C44.5527 6.61726 45.0287 6.52393 45.5607 6.52393C46.1301 6.52393 46.6247 6.62193 47.0447 6.81793C47.4647 7.01393 47.8101 7.27993 48.0807 7.61593C48.3514 7.95193 48.5521 8.34393 48.6827 8.79193C48.8227 9.23059 48.8927 9.70193 48.8927 10.2059V10.7939H44.0347V10.9759C44.0347 11.5079 44.1841 11.9373 44.4827 12.2639C44.7814 12.5813 45.2247 12.7399 45.8127 12.7399C46.2607 12.7399 46.6247 12.6466 46.9047 12.4599C47.1941 12.2733 47.4507 12.0353 47.6747 11.7459L48.6407 12.8239C48.3421 13.2439 47.9314 13.5753 47.4087 13.8179C46.8954 14.0513 46.2981 14.1679 45.6167 14.1679ZM45.5887 7.86793C45.1127 7.86793 44.7347 8.02659 44.4547 8.34393C44.1747 8.66126 44.0347 9.07193 44.0347 9.57593V9.68793H47.0307V9.56193C47.0307 9.05793 46.9047 8.65193 46.6527 8.34393C46.4101 8.02659 46.0554 7.86793 45.5887 7.86793Z" fill="white"/>
<path d="M30.441 6.69238H32.163L32.905 9.70238L33.479 12.2084H33.535L34.207 9.70238L35.061 6.69238H36.685L37.567 9.70238L38.253 12.2084H38.309L38.883 9.70238L39.611 6.69238H41.277L39.275 14.0004H37.343L36.405 10.7804L35.859 8.79238H35.817L35.285 10.7804L34.361 14.0004H32.457L30.441 6.69238Z" fill="white"/>
</svg>
