<svg width="348" height="14" viewBox="0 0 348 14" fill="none" xmlns="http://www.w3.org/2000/svg">
<path d="M24.1046 2.53609H24.0346L23.2086 4.17409L20.8706 8.43009L18.5326 4.17409L17.7066 2.53609H17.6366V10.7681H16.4886V0.996094H18.0566L20.8566 6.26009H20.9266L23.7406 0.996094H25.2526V10.7681H24.1046V2.53609Z" fill="#161616"/>
<path d="M7.18219 0.996094H11.2002C12.0122 0.996094 12.6469 1.22476 13.1042 1.68209C13.5709 2.13943 13.8042 2.75076 13.8042 3.51609C13.8042 3.88009 13.7529 4.18809 13.6502 4.44009C13.5475 4.69209 13.4169 4.90209 13.2582 5.07009C13.0995 5.22876 12.9269 5.35009 12.7402 5.43409C12.5535 5.50876 12.3809 5.56009 12.2222 5.58809V5.67209C12.3995 5.68143 12.5955 5.72809 12.8102 5.81209C13.0342 5.89609 13.2442 6.03143 13.4402 6.21809C13.6362 6.39543 13.7995 6.62876 13.9302 6.91809C14.0702 7.19809 14.1402 7.53876 14.1402 7.94009C14.1402 8.34143 14.0749 8.71476 13.9442 9.06009C13.8229 9.40543 13.6502 9.70409 13.4262 9.95609C13.2022 10.2081 12.9362 10.4088 12.6282 10.5581C12.3202 10.6981 11.9842 10.7681 11.6202 10.7681H7.18219V0.996094ZM8.35819 9.73209H11.2562C11.7602 9.73209 12.1569 9.60609 12.4462 9.35409C12.7355 9.09276 12.8802 8.71476 12.8802 8.22009V7.74409C12.8802 7.24943 12.7355 6.87609 12.4462 6.62409C12.1569 6.36276 11.7602 6.23209 11.2562 6.23209H8.35819V9.73209ZM8.35819 5.22409H11.0602C11.5269 5.22409 11.8909 5.10743 12.1522 4.87409C12.4135 4.64076 12.5442 4.30476 12.5442 3.86609V3.39009C12.5442 2.95143 12.4135 2.61543 12.1522 2.38209C11.8909 2.14876 11.5269 2.03209 11.0602 2.03209H8.35819V5.22409Z" fill="#161616"/>
<path d="M0.954651 10.7681V9.78809H2.32665V1.97609H0.954651V0.996094H4.87465V1.97609H3.50265V9.78809H4.87465V10.7681H0.954651Z" fill="#161616"/>
<path d="M344.131 10.936C343.59 10.936 343.105 10.8473 342.675 10.67C342.255 10.4833 341.896 10.2267 341.597 9.89999C341.308 9.56399 341.084 9.16266 340.925 8.69599C340.767 8.21999 340.687 7.68799 340.687 7.09999C340.687 6.52133 340.762 5.99866 340.911 5.53199C341.07 5.06533 341.294 4.66866 341.583 4.34199C341.873 4.00599 342.227 3.74933 342.647 3.57199C343.067 3.38533 343.543 3.29199 344.075 3.29199C344.645 3.29199 345.139 3.38999 345.559 3.58599C345.979 3.78199 346.325 4.04799 346.595 4.38399C346.866 4.71999 347.067 5.11199 347.197 5.55999C347.337 5.99866 347.407 6.46999 347.407 6.97399V7.56199H342.549V7.74399C342.549 8.27599 342.699 8.70533 342.997 9.03199C343.296 9.34933 343.739 9.50799 344.327 9.50799C344.775 9.50799 345.139 9.41466 345.419 9.22799C345.709 9.04133 345.965 8.80333 346.189 8.51399L347.155 9.59199C346.857 10.012 346.446 10.3433 345.923 10.586C345.41 10.8193 344.813 10.936 344.131 10.936ZM344.103 4.63599C343.627 4.63599 343.249 4.79466 342.969 5.11199C342.689 5.42933 342.549 5.83999 342.549 6.34399V6.45599H345.545V6.32999C345.545 5.82599 345.419 5.41999 345.167 5.11199C344.925 4.79466 344.57 4.63599 344.103 4.63599Z" fill="#161616"/>
<path d="M328.589 10.768V3.45999H330.381V4.67799H330.451C330.591 4.29533 330.815 3.96866 331.123 3.69799C331.431 3.42733 331.861 3.29199 332.411 3.29199C332.915 3.29199 333.349 3.41333 333.713 3.65599C334.077 3.89866 334.348 4.26733 334.525 4.76199H334.553C334.684 4.35133 334.941 4.00599 335.323 3.72599C335.715 3.43666 336.205 3.29199 336.793 3.29199C337.512 3.29199 338.063 3.53933 338.445 4.03399C338.837 4.52866 339.033 5.23333 339.033 6.14799V10.768H337.241V6.32999C337.241 5.28466 336.849 4.76199 336.065 4.76199C335.888 4.76199 335.715 4.78999 335.547 4.84599C335.389 4.89266 335.244 4.96733 335.113 5.06999C334.992 5.16333 334.894 5.28466 334.819 5.43399C334.745 5.57399 334.707 5.74199 334.707 5.93799V10.768H332.915V6.32999C332.915 5.28466 332.523 4.76199 331.739 4.76199C331.571 4.76199 331.403 4.78999 331.235 4.84599C331.077 4.89266 330.932 4.96733 330.801 5.06999C330.68 5.16333 330.577 5.28466 330.493 5.43399C330.419 5.57399 330.381 5.74199 330.381 5.93799V10.768H328.589Z" fill="#161616"/>
<path d="M325.456 2.39622C325.083 2.39622 324.812 2.31222 324.644 2.14422C324.486 1.97622 324.406 1.76155 324.406 1.50022V1.22022C324.406 0.958886 324.486 0.744219 324.644 0.576219C324.812 0.408219 325.083 0.324219 325.456 0.324219C325.82 0.324219 326.086 0.408219 326.254 0.576219C326.422 0.744219 326.506 0.958886 326.506 1.22022V1.50022C326.506 1.76155 326.422 1.97622 326.254 2.14422C326.086 2.31222 325.82 2.39622 325.456 2.39622ZM324.56 3.46022H326.352V10.7682H324.56V3.46022Z" fill="#161616"/>
<path d="M321.446 10.768C320.83 10.768 320.359 10.6093 320.032 10.292C319.715 9.96534 319.556 9.50334 319.556 8.90601V4.88801H318.478V3.46001H319.038C319.309 3.46001 319.491 3.39934 319.584 3.27801C319.687 3.14734 319.738 2.95601 319.738 2.70401V1.45801H321.348V3.46001H322.846V4.88801H321.348V9.34001H322.734V10.768H321.446Z" fill="#161616"/>
<path d="M310.774 10.768V3.45999H312.566V4.67799H312.636C312.785 4.28599 313.018 3.95933 313.336 3.69799C313.662 3.42733 314.11 3.29199 314.68 3.29199C315.436 3.29199 316.014 3.53933 316.416 4.03399C316.817 4.52866 317.018 5.23333 317.018 6.14799V10.768H315.226V6.32999C315.226 5.80733 315.132 5.41533 314.946 5.15399C314.759 4.89266 314.451 4.76199 314.022 4.76199C313.835 4.76199 313.653 4.78999 313.476 4.84599C313.308 4.89266 313.154 4.96733 313.014 5.06999C312.883 5.16333 312.776 5.28466 312.692 5.43399C312.608 5.57399 312.566 5.74199 312.566 5.93799V10.768H310.774Z" fill="#161616"/>
<path d="M306.751 9.54996H306.681C306.616 9.73663 306.527 9.91396 306.415 10.082C306.312 10.2406 306.177 10.3853 306.009 10.516C305.85 10.6466 305.654 10.7493 305.421 10.824C305.197 10.8986 304.936 10.936 304.637 10.936C303.881 10.936 303.302 10.6886 302.901 10.194C302.5 9.69929 302.299 8.99463 302.299 8.07996V3.45996H304.091V7.89796C304.091 8.40196 304.189 8.78929 304.385 9.05996C304.581 9.32129 304.894 9.45196 305.323 9.45196C305.5 9.45196 305.673 9.42863 305.841 9.38196C306.018 9.33529 306.172 9.26529 306.303 9.17196C306.434 9.06929 306.541 8.94796 306.625 8.80796C306.709 8.65863 306.751 8.48596 306.751 8.28996V3.45996H308.543V10.768H306.751V9.54996Z" fill="#161616"/>
<path d="M294.886 10.7681H293.038V0.996094H297.448C297.896 0.996094 298.298 1.06609 298.652 1.20609C299.007 1.34609 299.306 1.55143 299.548 1.82209C299.8 2.08343 299.992 2.40076 300.122 2.77409C300.262 3.14743 300.332 3.56276 300.332 4.02009C300.332 4.69209 300.178 5.27076 299.87 5.75609C299.572 6.24143 299.119 6.58676 298.512 6.79209L300.514 10.7681H298.456L296.636 7.00209H294.886V10.7681ZM297.266 5.44809C297.621 5.44809 297.901 5.35476 298.106 5.16809C298.312 4.97209 298.414 4.69676 298.414 4.34209V3.69809C298.414 3.34343 298.312 3.07276 298.106 2.88609C297.901 2.69943 297.621 2.60609 297.266 2.60609H294.886V5.44809H297.266Z" fill="#161616"/>
<path d="M284.705 10.936C284.005 10.936 283.417 10.8193 282.941 10.586C282.465 10.3433 282.045 10.012 281.681 9.59199L282.773 8.52799C283.044 8.83599 283.338 9.07866 283.655 9.25599C283.982 9.43333 284.355 9.52199 284.775 9.52199C285.205 9.52199 285.513 9.44733 285.699 9.29799C285.895 9.14866 285.993 8.94333 285.993 8.68199C285.993 8.46733 285.923 8.29933 285.783 8.17799C285.653 8.04733 285.424 7.95866 285.097 7.91199L284.369 7.81399C283.576 7.71133 282.969 7.48733 282.549 7.14199C282.139 6.78733 281.933 6.27399 281.933 5.60199C281.933 5.24733 281.999 4.92999 282.129 4.64999C282.26 4.36066 282.447 4.11799 282.689 3.92199C282.932 3.71666 283.221 3.56266 283.557 3.45999C283.903 3.34799 284.285 3.29199 284.705 3.29199C285.06 3.29199 285.373 3.31999 285.643 3.37599C285.923 3.42266 286.175 3.49733 286.399 3.59999C286.623 3.69333 286.829 3.81466 287.015 3.96399C287.202 4.10399 287.384 4.26266 287.561 4.43999L286.511 5.48999C286.297 5.26599 286.04 5.07933 285.741 4.92999C285.443 4.78066 285.116 4.70599 284.761 4.70599C284.369 4.70599 284.085 4.77599 283.907 4.91599C283.739 5.05599 283.655 5.23799 283.655 5.46199C283.655 5.70466 283.725 5.89133 283.865 6.02199C284.015 6.14333 284.262 6.23199 284.607 6.28799L285.349 6.38599C286.927 6.60999 287.715 7.32866 287.715 8.54199C287.715 8.89666 287.641 9.22333 287.491 9.52199C287.351 9.81133 287.151 10.0633 286.889 10.278C286.628 10.4833 286.311 10.6467 285.937 10.768C285.573 10.88 285.163 10.936 284.705 10.936Z" fill="#161616"/>
<path d="M277.299 10.936C276.757 10.936 276.272 10.8473 275.843 10.67C275.423 10.4833 275.063 10.2267 274.765 9.89999C274.475 9.56399 274.251 9.16266 274.093 8.69599C273.934 8.21999 273.855 7.68799 273.855 7.09999C273.855 6.52133 273.929 5.99866 274.079 5.53199C274.237 5.06533 274.461 4.66866 274.751 4.34199C275.04 4.00599 275.395 3.74933 275.815 3.57199C276.235 3.38533 276.711 3.29199 277.243 3.29199C277.812 3.29199 278.307 3.38999 278.727 3.58599C279.147 3.78199 279.492 4.04799 279.763 4.38399C280.033 4.71999 280.234 5.11199 280.365 5.55999C280.505 5.99866 280.575 6.46999 280.575 6.97399V7.56199H275.717V7.74399C275.717 8.27599 275.866 8.70533 276.165 9.03199C276.463 9.34933 276.907 9.50799 277.495 9.50799C277.943 9.50799 278.307 9.41466 278.587 9.22799C278.876 9.04133 279.133 8.80333 279.357 8.51399L280.323 9.59199C280.024 10.012 279.613 10.3433 279.091 10.586C278.577 10.8193 277.98 10.936 277.299 10.936ZM277.271 4.63599C276.795 4.63599 276.417 4.79466 276.137 5.11199C275.857 5.42933 275.717 5.83999 275.717 6.34399V6.45599H278.713V6.32999C278.713 5.82599 278.587 5.41999 278.335 5.11199C278.092 4.79466 277.737 4.63599 277.271 4.63599Z" fill="#161616"/>
<path d="M269.959 10.936C269.418 10.936 268.937 10.8473 268.517 10.67C268.097 10.4927 267.743 10.236 267.453 9.89999C267.173 9.56399 266.959 9.16266 266.809 8.69599C266.66 8.21999 266.585 7.68799 266.585 7.09999C266.585 6.51199 266.66 5.98466 266.809 5.51799C266.959 5.05133 267.173 4.65466 267.453 4.32799C267.743 3.99199 268.097 3.73533 268.517 3.55799C268.937 3.38066 269.418 3.29199 269.959 3.29199C270.697 3.29199 271.303 3.45533 271.779 3.78199C272.265 4.10866 272.615 4.56133 272.829 5.13999L271.359 5.79799C271.275 5.48999 271.117 5.23799 270.883 5.04199C270.659 4.83666 270.351 4.73399 269.959 4.73399C269.455 4.73399 269.077 4.89266 268.825 5.20999C268.583 5.52733 268.461 5.94266 268.461 6.45599V7.78599C268.461 8.29933 268.583 8.71466 268.825 9.03199C269.077 9.33999 269.455 9.49399 269.959 9.49399C270.389 9.49399 270.72 9.38666 270.953 9.17199C271.187 8.94799 271.369 8.67266 271.499 8.34599L272.871 9.00399C272.629 9.64799 272.26 10.1333 271.765 10.46C271.271 10.7773 270.669 10.936 269.959 10.936Z" fill="#161616"/>
<path d="M263.942 2.39622C263.569 2.39622 263.298 2.31222 263.13 2.14422C262.971 1.97622 262.892 1.76155 262.892 1.50022V1.22022C262.892 0.958886 262.971 0.744219 263.13 0.576219C263.298 0.408219 263.569 0.324219 263.942 0.324219C264.306 0.324219 264.572 0.408219 264.74 0.576219C264.908 0.744219 264.992 0.958886 264.992 1.22022V1.50022C264.992 1.76155 264.908 1.97622 264.74 2.14422C264.572 2.31222 264.306 2.39622 263.942 2.39622ZM263.046 3.46022H264.838V10.7682H263.046V3.46022Z" fill="#161616"/>
<path d="M257.112 10.768L254.676 3.45996H256.44L257.462 6.60996L258.176 9.21396H258.274L258.988 6.60996L259.982 3.45996H261.69L259.24 10.768H257.112Z" fill="#161616"/>
<path d="M249.779 10.768V3.45996H251.571V4.97196H251.641C251.687 4.77596 251.757 4.58929 251.851 4.41196C251.953 4.22529 252.084 4.06196 252.243 3.92196C252.401 3.78196 252.588 3.66996 252.803 3.58596C253.027 3.50196 253.283 3.45996 253.573 3.45996H253.965V5.15396H253.405C252.798 5.15396 252.341 5.24263 252.033 5.41996C251.725 5.59729 251.571 5.88663 251.571 6.28796V10.768H249.779Z" fill="#161616"/>
<path d="M244.766 10.936C244.225 10.936 243.74 10.8473 243.31 10.67C242.89 10.4833 242.531 10.2267 242.232 9.89999C241.943 9.56399 241.719 9.16266 241.56 8.69599C241.402 8.21999 241.322 7.68799 241.322 7.09999C241.322 6.52133 241.397 5.99866 241.546 5.53199C241.705 5.06533 241.929 4.66866 242.218 4.34199C242.508 4.00599 242.862 3.74933 243.282 3.57199C243.702 3.38533 244.178 3.29199 244.71 3.29199C245.28 3.29199 245.774 3.38999 246.194 3.58599C246.614 3.78199 246.96 4.04799 247.23 4.38399C247.501 4.71999 247.702 5.11199 247.832 5.55999C247.972 5.99866 248.042 6.46999 248.042 6.97399V7.56199H243.184V7.74399C243.184 8.27599 243.334 8.70533 243.632 9.03199C243.931 9.34933 244.374 9.50799 244.962 9.50799C245.41 9.50799 245.774 9.41466 246.054 9.22799C246.344 9.04133 246.6 8.80333 246.824 8.51399L247.79 9.59199C247.492 10.012 247.081 10.3433 246.558 10.586C246.045 10.8193 245.448 10.936 244.766 10.936ZM244.738 4.63599C244.262 4.63599 243.884 4.79466 243.604 5.11199C243.324 5.42933 243.184 5.83999 243.184 6.34399V6.45599H246.18V6.32999C246.18 5.82599 246.054 5.41999 245.802 5.11199C245.56 4.79466 245.205 4.63599 244.738 4.63599Z" fill="#161616"/>
<path d="M237.06 10.936C236.36 10.936 235.772 10.8193 235.296 10.586C234.82 10.3433 234.4 10.012 234.036 9.59199L235.128 8.52799C235.399 8.83599 235.693 9.07866 236.01 9.25599C236.337 9.43333 236.71 9.52199 237.13 9.52199C237.559 9.52199 237.867 9.44733 238.054 9.29799C238.25 9.14866 238.348 8.94333 238.348 8.68199C238.348 8.46733 238.278 8.29933 238.138 8.17799C238.007 8.04733 237.779 7.95866 237.452 7.91199L236.724 7.81399C235.931 7.71133 235.324 7.48733 234.904 7.14199C234.493 6.78733 234.288 6.27399 234.288 5.60199C234.288 5.24733 234.353 4.92999 234.484 4.64999C234.615 4.36066 234.801 4.11799 235.044 3.92199C235.287 3.71666 235.576 3.56266 235.912 3.45999C236.257 3.34799 236.64 3.29199 237.06 3.29199C237.415 3.29199 237.727 3.31999 237.998 3.37599C238.278 3.42266 238.53 3.49733 238.754 3.59999C238.978 3.69333 239.183 3.81466 239.37 3.96399C239.557 4.10399 239.739 4.26266 239.916 4.43999L238.866 5.48999C238.651 5.26599 238.395 5.07933 238.096 4.92999C237.797 4.78066 237.471 4.70599 237.116 4.70599C236.724 4.70599 236.439 4.77599 236.262 4.91599C236.094 5.05599 236.01 5.23799 236.01 5.46199C236.01 5.70466 236.08 5.89133 236.22 6.02199C236.369 6.14333 236.617 6.23199 236.962 6.28799L237.704 6.38599C239.281 6.60999 240.07 7.32866 240.07 8.54199C240.07 8.89666 239.995 9.22333 239.846 9.52199C239.706 9.81133 239.505 10.0633 239.244 10.278C238.983 10.4833 238.665 10.6467 238.292 10.768C237.928 10.88 237.517 10.936 237.06 10.936Z" fill="#161616"/>
<path d="M229.515 10.936C228.993 10.936 228.521 10.8473 228.101 10.67C227.691 10.4927 227.336 10.236 227.037 9.89999C226.748 9.56399 226.524 9.16266 226.365 8.69599C226.207 8.21999 226.127 7.68799 226.127 7.09999C226.127 6.51199 226.207 5.98466 226.365 5.51799C226.524 5.05133 226.748 4.65466 227.037 4.32799C227.336 3.99199 227.691 3.73533 228.101 3.55799C228.521 3.38066 228.993 3.29199 229.515 3.29199C230.038 3.29199 230.509 3.38066 230.929 3.55799C231.349 3.73533 231.704 3.99199 231.993 4.32799C232.292 4.65466 232.521 5.05133 232.679 5.51799C232.838 5.98466 232.917 6.51199 232.917 7.09999C232.917 7.68799 232.838 8.21999 232.679 8.69599C232.521 9.16266 232.292 9.56399 231.993 9.89999C231.704 10.236 231.349 10.4927 230.929 10.67C230.509 10.8473 230.038 10.936 229.515 10.936ZM229.515 9.49399C229.991 9.49399 230.365 9.34933 230.635 9.05999C230.906 8.77066 231.041 8.34599 231.041 7.78599V6.42799C231.041 5.87733 230.906 5.45733 230.635 5.16799C230.365 4.87866 229.991 4.73399 229.515 4.73399C229.049 4.73399 228.68 4.87866 228.409 5.16799C228.139 5.45733 228.003 5.87733 228.003 6.42799V7.78599C228.003 8.34599 228.139 8.77066 228.409 9.05999C228.68 9.34933 229.049 9.49399 229.515 9.49399Z" fill="#161616"/>
<path d="M221.029 10.768V3.45996H222.821V4.97196H222.891C222.938 4.77596 223.008 4.58929 223.101 4.41196C223.204 4.22529 223.335 4.06196 223.493 3.92196C223.652 3.78196 223.839 3.66996 224.053 3.58596C224.277 3.50196 224.534 3.45996 224.823 3.45996H225.215V5.15396H224.655C224.049 5.15396 223.591 5.24263 223.283 5.41996C222.975 5.59729 222.821 5.88663 222.821 6.28796V10.768H221.029Z" fill="#161616"/>
<path d="M216.576 10.936C216.034 10.936 215.554 10.8473 215.134 10.67C214.714 10.4927 214.359 10.236 214.07 9.89999C213.79 9.56399 213.575 9.16266 213.426 8.69599C213.276 8.21999 213.202 7.68799 213.202 7.09999C213.202 6.51199 213.276 5.98466 213.426 5.51799C213.575 5.05133 213.79 4.65466 214.07 4.32799C214.359 3.99199 214.714 3.73533 215.134 3.55799C215.554 3.38066 216.034 3.29199 216.576 3.29199C217.313 3.29199 217.92 3.45533 218.396 3.78199C218.881 4.10866 219.231 4.56133 219.446 5.13999L217.976 5.79799C217.892 5.48999 217.733 5.23799 217.5 5.04199C217.276 4.83666 216.968 4.73399 216.576 4.73399C216.072 4.73399 215.694 4.89266 215.442 5.20999C215.199 5.52733 215.078 5.94266 215.078 6.45599V7.78599C215.078 8.29933 215.199 8.71466 215.442 9.03199C215.694 9.33999 216.072 9.49399 216.576 9.49399C217.005 9.49399 217.336 9.38666 217.57 9.17199C217.803 8.94799 217.985 8.67266 218.116 8.34599L219.488 9.00399C219.245 9.64799 218.876 10.1333 218.382 10.46C217.887 10.7773 217.285 10.936 216.576 10.936Z" fill="#161616"/>
<path d="M210.559 2.39622C210.185 2.39622 209.915 2.31222 209.747 2.14422C209.588 1.97622 209.509 1.76155 209.509 1.50022V1.22022C209.509 0.958886 209.588 0.744219 209.747 0.576219C209.915 0.408219 210.185 0.324219 210.559 0.324219C210.923 0.324219 211.189 0.408219 211.357 0.576219C211.525 0.744219 211.609 0.958886 211.609 1.22022V1.50022C211.609 1.76155 211.525 1.97622 211.357 2.14422C211.189 2.31222 210.923 2.39622 210.559 2.39622ZM209.663 3.46022H211.455V10.7682H209.663V3.46022Z" fill="#161616"/>
<path d="M205.563 3.75409H205.507L204.751 5.30809L202.749 9.00409L200.747 5.30809L199.991 3.75409H199.935V10.7681H198.185V0.996094H200.271L202.777 5.77009H202.833L205.311 0.996094H207.313V10.7681H205.563V3.75409Z" fill="#161616"/>
<path d="M186.214 10.768V3.45999H188.006V4.67799H188.076C188.225 4.28599 188.458 3.95933 188.776 3.69799C189.102 3.42733 189.55 3.29199 190.12 3.29199C190.876 3.29199 191.454 3.53933 191.856 4.03399C192.257 4.52866 192.458 5.23333 192.458 6.14799V10.768H190.666V6.32999C190.666 5.80733 190.572 5.41533 190.386 5.15399C190.199 4.89266 189.891 4.76199 189.462 4.76199C189.275 4.76199 189.093 4.78999 188.916 4.84599C188.748 4.89266 188.594 4.96733 188.454 5.06999C188.323 5.16333 188.216 5.28466 188.132 5.43399C188.048 5.57399 188.006 5.74199 188.006 5.93799V10.768H186.214Z" fill="#161616"/>
<path d="M181.063 10.936C180.541 10.936 180.069 10.8473 179.649 10.67C179.239 10.4927 178.884 10.236 178.585 9.89999C178.296 9.56399 178.072 9.16266 177.913 8.69599C177.754 8.21999 177.675 7.68799 177.675 7.09999C177.675 6.51199 177.754 5.98466 177.913 5.51799C178.072 5.05133 178.296 4.65466 178.585 4.32799C178.884 3.99199 179.239 3.73533 179.649 3.55799C180.069 3.38066 180.541 3.29199 181.063 3.29199C181.586 3.29199 182.057 3.38066 182.477 3.55799C182.897 3.73533 183.252 3.99199 183.541 4.32799C183.84 4.65466 184.069 5.05133 184.227 5.51799C184.386 5.98466 184.465 6.51199 184.465 7.09999C184.465 7.68799 184.386 8.21999 184.227 8.69599C184.069 9.16266 183.84 9.56399 183.541 9.89999C183.252 10.236 182.897 10.4927 182.477 10.67C182.057 10.8473 181.586 10.936 181.063 10.936ZM181.063 9.49399C181.539 9.49399 181.912 9.34933 182.183 9.05999C182.454 8.77066 182.589 8.34599 182.589 7.78599V6.42799C182.589 5.87733 182.454 5.45733 182.183 5.16799C181.912 4.87866 181.539 4.73399 181.063 4.73399C180.597 4.73399 180.228 4.87866 179.957 5.16799C179.687 5.45733 179.551 5.87733 179.551 6.42799V7.78599C179.551 8.34599 179.687 8.77066 179.957 9.05999C180.228 9.34933 180.597 9.49399 181.063 9.49399Z" fill="#161616"/>
<path d="M175.032 2.39622C174.659 2.39622 174.388 2.31222 174.22 2.14422C174.061 1.97622 173.982 1.76155 173.982 1.50022V1.22022C173.982 0.958886 174.061 0.744219 174.22 0.576219C174.388 0.408219 174.659 0.324219 175.032 0.324219C175.396 0.324219 175.662 0.408219 175.83 0.576219C175.998 0.744219 176.082 0.958886 176.082 1.22022V1.50022C176.082 1.76155 175.998 1.97622 175.83 2.14422C175.662 2.31222 175.396 2.39622 175.032 2.39622ZM174.136 3.46022H175.928V10.7682H174.136V3.46022Z" fill="#161616"/>
<path d="M171.022 10.768C170.406 10.768 169.934 10.6093 169.608 10.292C169.29 9.96534 169.132 9.50334 169.132 8.90601V4.88801H168.054V3.46001H168.614C168.884 3.46001 169.066 3.39934 169.16 3.27801C169.262 3.14734 169.314 2.95601 169.314 2.70401V1.45801H170.924V3.46001H172.422V4.88801H170.924V9.34001H172.31V10.768H171.022Z" fill="#161616"/>
<path d="M166.19 10.768C165.798 10.768 165.485 10.656 165.252 10.432C165.028 10.1987 164.888 9.89066 164.832 9.50799H164.748C164.627 9.98399 164.379 10.3433 164.006 10.586C163.633 10.8193 163.171 10.936 162.62 10.936C161.873 10.936 161.299 10.74 160.898 10.348C160.497 9.95599 160.296 9.43333 160.296 8.77999C160.296 8.02399 160.567 7.46399 161.108 7.09999C161.649 6.72666 162.419 6.53999 163.418 6.53999H164.664V6.00799C164.664 5.59733 164.557 5.27999 164.342 5.05599C164.127 4.83199 163.782 4.71999 163.306 4.71999C162.886 4.71999 162.545 4.81333 162.284 4.99999C162.032 5.17733 161.817 5.39199 161.64 5.64399L160.576 4.69199C160.847 4.27199 161.206 3.93599 161.654 3.68399C162.102 3.42266 162.695 3.29199 163.432 3.29199C164.421 3.29199 165.173 3.51599 165.686 3.96399C166.199 4.41199 166.456 5.05599 166.456 5.89599V9.33999H167.184V10.768H166.19ZM163.222 9.63399C163.623 9.63399 163.964 9.54533 164.244 9.36799C164.524 9.19066 164.664 8.92933 164.664 8.58399V7.61799H163.516C162.583 7.61799 162.116 7.91666 162.116 8.51399V8.75199C162.116 9.05066 162.209 9.27466 162.396 9.42399C162.592 9.56399 162.867 9.63399 163.222 9.63399Z" fill="#161616"/>
<path d="M155.308 10.768V3.45996H157.1V4.97196H157.17C157.217 4.77596 157.287 4.58929 157.38 4.41196C157.483 4.22529 157.614 4.06196 157.772 3.92196C157.931 3.78196 158.118 3.66996 158.332 3.58596C158.556 3.50196 158.813 3.45996 159.102 3.45996H159.494V5.15396H158.934C158.328 5.15396 157.87 5.24263 157.562 5.41996C157.254 5.59729 157.1 5.88663 157.1 6.28796V10.768H155.308Z" fill="#161616"/>
<path d="M154.113 11.3839C154.113 11.7665 154.043 12.1025 153.903 12.3919C153.773 12.6905 153.553 12.9379 153.245 13.1339C152.937 13.3299 152.541 13.4792 152.055 13.5819C151.57 13.6845 150.977 13.7359 150.277 13.7359C149.661 13.7359 149.139 13.6939 148.709 13.6099C148.28 13.5352 147.925 13.4232 147.645 13.2739C147.375 13.1339 147.179 12.9565 147.057 12.7419C146.936 12.5272 146.875 12.2845 146.875 12.0139C146.875 11.6032 146.987 11.2812 147.211 11.0479C147.445 10.8239 147.767 10.6792 148.177 10.6139V10.4599C147.879 10.3852 147.645 10.2405 147.477 10.0259C147.319 9.80188 147.239 9.54054 147.239 9.24188C147.239 9.05521 147.277 8.89188 147.351 8.75188C147.426 8.60254 147.524 8.47654 147.645 8.37388C147.776 8.27121 147.921 8.18721 148.079 8.12188C148.238 8.04721 148.406 7.99121 148.583 7.95388V7.89788C148.135 7.69254 147.799 7.40788 147.575 7.04388C147.361 6.67988 147.253 6.25521 147.253 5.76988C147.253 5.02321 147.51 4.42588 148.023 3.97788C148.537 3.52054 149.288 3.29187 150.277 3.29187C150.501 3.29187 150.721 3.30587 150.935 3.33388C151.159 3.36188 151.365 3.40854 151.551 3.47387V3.23587C151.551 2.52654 151.897 2.17188 152.587 2.17188H153.721V3.54387H152.167V3.73987C152.55 3.95454 152.835 4.23454 153.021 4.57987C153.208 4.92521 153.301 5.32187 153.301 5.76988C153.301 6.50721 153.045 7.09987 152.531 7.54787C152.027 7.99587 151.276 8.21987 150.277 8.21987C149.848 8.21987 149.475 8.17788 149.157 8.09388C149.017 8.15921 148.896 8.24788 148.793 8.35988C148.691 8.46254 148.639 8.59321 148.639 8.75188C148.639 9.11588 148.957 9.29787 149.591 9.29787H151.551C152.447 9.29787 153.096 9.48454 153.497 9.85788C153.908 10.2219 154.113 10.7305 154.113 11.3839ZM152.433 11.5939C152.433 11.3605 152.34 11.1785 152.153 11.0479C151.967 10.9172 151.645 10.8519 151.187 10.8519H148.695C148.443 11.0385 148.317 11.2905 148.317 11.6079C148.317 11.8879 148.434 12.1072 148.667 12.2659C148.901 12.4245 149.297 12.5039 149.857 12.5039H150.753C151.341 12.5039 151.766 12.4292 152.027 12.2799C152.298 12.1305 152.433 11.9019 152.433 11.5939ZM150.277 7.00187C151.155 7.00187 151.593 6.62854 151.593 5.88188V5.64387C151.593 4.89721 151.155 4.52388 150.277 4.52388C149.4 4.52388 148.961 4.89721 148.961 5.64387V5.88188C148.961 6.62854 149.4 7.00187 150.277 7.00187Z" fill="#161616"/>
<path d="M142.507 10.936C141.965 10.936 141.48 10.8473 141.051 10.67C140.631 10.4833 140.271 10.2267 139.973 9.89999C139.683 9.56399 139.459 9.16266 139.301 8.69599C139.142 8.21999 139.063 7.68799 139.063 7.09999C139.063 6.52133 139.137 5.99866 139.287 5.53199C139.445 5.06533 139.669 4.66866 139.959 4.34199C140.248 4.00599 140.603 3.74933 141.023 3.57199C141.443 3.38533 141.919 3.29199 142.451 3.29199C143.02 3.29199 143.515 3.38999 143.935 3.58599C144.355 3.78199 144.7 4.04799 144.971 4.38399C145.241 4.71999 145.442 5.11199 145.573 5.55999C145.713 5.99866 145.783 6.46999 145.783 6.97399V7.56199H140.925V7.74399C140.925 8.27599 141.074 8.70533 141.373 9.03199C141.671 9.34933 142.115 9.50799 142.703 9.50799C143.151 9.50799 143.515 9.41466 143.795 9.22799C144.084 9.04133 144.341 8.80333 144.565 8.51399L145.531 9.59199C145.232 10.012 144.821 10.3433 144.299 10.586C143.785 10.8193 143.188 10.936 142.507 10.936ZM142.479 4.63599C142.003 4.63599 141.625 4.79466 141.345 5.11199C141.065 5.42933 140.925 5.83999 140.925 6.34399V6.45599H143.921V6.32999C143.921 5.82599 143.795 5.41999 143.543 5.11199C143.3 4.79466 142.945 4.63599 142.479 4.63599Z" fill="#161616"/>
<path d="M136.493 10.768C135.877 10.768 135.406 10.6093 135.079 10.292C134.762 9.96534 134.603 9.50334 134.603 8.90601V4.88801H133.525V3.46001H134.085C134.356 3.46001 134.538 3.39934 134.631 3.27801C134.734 3.14734 134.785 2.95601 134.785 2.70401V1.45801H136.395V3.46001H137.893V4.88801H136.395V9.34001H137.781V10.768H136.493Z" fill="#161616"/>
<path d="M125.821 10.768V3.45999H127.613V4.67799H127.683C127.832 4.28599 128.065 3.95933 128.383 3.69799C128.709 3.42733 129.157 3.29199 129.727 3.29199C130.483 3.29199 131.061 3.53933 131.463 4.03399C131.864 4.52866 132.065 5.23333 132.065 6.14799V10.768H130.273V6.32999C130.273 5.80733 130.179 5.41533 129.993 5.15399C129.806 4.89266 129.498 4.76199 129.069 4.76199C128.882 4.76199 128.7 4.78999 128.523 4.84599C128.355 4.89266 128.201 4.96733 128.061 5.06999C127.93 5.16333 127.823 5.28466 127.739 5.43399C127.655 5.57399 127.613 5.74199 127.613 5.93799V10.768H125.821Z" fill="#161616"/>
<path d="M119.447 10.7681V9.28409H120.735V2.48009H119.447V0.996094H123.885V2.48009H122.583V9.28409H123.885V10.7681H119.447Z" fill="#161616"/>
<path d="M111.52 10.936C110.82 10.936 110.232 10.8193 109.756 10.586C109.28 10.3433 108.86 10.012 108.496 9.59199L109.588 8.52799C109.859 8.83599 110.153 9.07866 110.47 9.25599C110.797 9.43333 111.17 9.52199 111.59 9.52199C112.019 9.52199 112.327 9.44733 112.514 9.29799C112.71 9.14866 112.808 8.94333 112.808 8.68199C112.808 8.46733 112.738 8.29933 112.598 8.17799C112.467 8.04733 112.239 7.95866 111.912 7.91199L111.184 7.81399C110.391 7.71133 109.784 7.48733 109.364 7.14199C108.953 6.78733 108.748 6.27399 108.748 5.60199C108.748 5.24733 108.813 4.92999 108.944 4.64999C109.075 4.36066 109.261 4.11799 109.504 3.92199C109.747 3.71666 110.036 3.56266 110.372 3.45999C110.717 3.34799 111.1 3.29199 111.52 3.29199C111.875 3.29199 112.187 3.31999 112.458 3.37599C112.738 3.42266 112.99 3.49733 113.214 3.59999C113.438 3.69333 113.643 3.81466 113.83 3.96399C114.017 4.10399 114.199 4.26266 114.376 4.43999L113.326 5.48999C113.111 5.26599 112.855 5.07933 112.556 4.92999C112.257 4.78066 111.931 4.70599 111.576 4.70599C111.184 4.70599 110.899 4.77599 110.722 4.91599C110.554 5.05599 110.47 5.23799 110.47 5.46199C110.47 5.70466 110.54 5.89133 110.68 6.02199C110.829 6.14333 111.077 6.23199 111.422 6.28799L112.164 6.38599C113.741 6.60999 114.53 7.32866 114.53 8.54199C114.53 8.89666 114.455 9.22333 114.306 9.52199C114.166 9.81133 113.965 10.0633 113.704 10.278C113.443 10.4833 113.125 10.6467 112.752 10.768C112.388 10.88 111.977 10.936 111.52 10.936Z" fill="#161616"/>
<path d="M105.107 9.5502H105.037C104.907 9.9702 104.659 10.3062 104.295 10.5582C103.931 10.8102 103.507 10.9362 103.021 10.9362C102.097 10.9362 101.388 10.6049 100.893 9.9422C100.408 9.27954 100.165 8.3322 100.165 7.1002C100.165 5.87754 100.408 4.93954 100.893 4.2862C101.388 3.62354 102.097 3.2922 103.021 3.2922C103.507 3.2922 103.931 3.4182 104.295 3.6702C104.659 3.91287 104.907 4.2442 105.037 4.6642H105.107V0.408203H106.899V10.7682H105.107V9.5502ZM103.595 9.4522C104.025 9.4522 104.384 9.34954 104.673 9.1442C104.963 8.93887 105.107 8.64487 105.107 8.2622V5.9382C105.107 5.58354 104.963 5.29887 104.673 5.0842C104.384 4.86954 104.025 4.7622 103.595 4.7622C103.129 4.7622 102.751 4.92087 102.461 5.2382C102.181 5.5462 102.041 5.96154 102.041 6.4842V7.7442C102.041 8.26687 102.181 8.6822 102.461 8.9902C102.751 9.2982 103.129 9.4522 103.595 9.4522Z" fill="#161616"/>
<path d="M95.4207 10.936C94.898 10.936 94.4267 10.8473 94.0067 10.67C93.596 10.4927 93.2413 10.236 92.9427 9.89999C92.6533 9.56399 92.4293 9.16266 92.2707 8.69599C92.112 8.21999 92.0327 7.68799 92.0327 7.09999C92.0327 6.51199 92.112 5.98466 92.2707 5.51799C92.4293 5.05133 92.6533 4.65466 92.9427 4.32799C93.2413 3.99199 93.596 3.73533 94.0067 3.55799C94.4267 3.38066 94.898 3.29199 95.4207 3.29199C95.9433 3.29199 96.4147 3.38066 96.8347 3.55799C97.2547 3.73533 97.6093 3.99199 97.8987 4.32799C98.1973 4.65466 98.426 5.05133 98.5847 5.51799C98.7433 5.98466 98.8227 6.51199 98.8227 7.09999C98.8227 7.68799 98.7433 8.21999 98.5847 8.69599C98.426 9.16266 98.1973 9.56399 97.8987 9.89999C97.6093 10.236 97.2547 10.4927 96.8347 10.67C96.4147 10.8473 95.9433 10.936 95.4207 10.936ZM95.4207 9.49399C95.8967 9.49399 96.27 9.34933 96.5406 9.05999C96.8113 8.77066 96.9467 8.34599 96.9467 7.78599V6.42799C96.9467 5.87733 96.8113 5.45733 96.5406 5.16799C96.27 4.87866 95.8967 4.73399 95.4207 4.73399C94.954 4.73399 94.5853 4.87866 94.3147 5.16799C94.044 5.45733 93.9087 5.87733 93.9087 6.42799V7.78599C93.9087 8.34599 94.044 8.77066 94.3147 9.05999C94.5853 9.34933 94.954 9.49399 95.4207 9.49399Z" fill="#161616"/>
<path d="M84.1322 0.408203H85.9242V4.6782H85.9942C86.1435 4.2862 86.3769 3.95954 86.6942 3.6982C87.0209 3.42754 87.4689 3.2922 88.0382 3.2922C88.7942 3.2922 89.3729 3.53954 89.7742 4.0342C90.1755 4.52887 90.3762 5.23354 90.3762 6.1482V10.7682H88.5842V6.3302C88.5842 5.80754 88.4909 5.41554 88.3042 5.1542C88.1175 4.89287 87.8095 4.7622 87.3802 4.7622C87.1935 4.7622 87.0115 4.7902 86.8342 4.8462C86.6662 4.89287 86.5122 4.96754 86.3722 5.0702C86.2415 5.16354 86.1342 5.28487 86.0502 5.4342C85.9662 5.5742 85.9242 5.7422 85.9242 5.9382V10.7682H84.1322V0.408203Z" fill="#161616"/>
<path d="M81.0179 10.768C80.4019 10.768 79.9305 10.6093 79.6039 10.292C79.2865 9.96534 79.1279 9.50334 79.1279 8.90601V4.88801H78.0499V3.46001H78.6099C78.8805 3.46001 79.0625 3.39934 79.1559 3.27801C79.2585 3.14734 79.3099 2.95601 79.3099 2.70401V1.45801H80.9199V3.46001H82.4179V4.88801H80.9199V9.34001H82.3059V10.768H81.0179Z" fill="#161616"/>
<path d="M73.7232 10.936C73.1819 10.936 72.6966 10.8473 72.2672 10.67C71.8472 10.4833 71.4879 10.2267 71.1892 9.89999C70.8999 9.56399 70.6759 9.16266 70.5172 8.69599C70.3586 8.21999 70.2792 7.68799 70.2792 7.09999C70.2792 6.52133 70.3539 5.99866 70.5032 5.53199C70.6619 5.06533 70.8859 4.66866 71.1752 4.34199C71.4646 4.00599 71.8192 3.74933 72.2392 3.57199C72.6592 3.38533 73.1352 3.29199 73.6672 3.29199C74.2366 3.29199 74.7312 3.38999 75.1512 3.58599C75.5712 3.78199 75.9166 4.04799 76.1872 4.38399C76.4579 4.71999 76.6586 5.11199 76.7892 5.55999C76.9292 5.99866 76.9992 6.46999 76.9992 6.97399V7.56199H72.1412V7.74399C72.1412 8.27599 72.2906 8.70533 72.5892 9.03199C72.8879 9.34933 73.3312 9.50799 73.9192 9.50799C74.3672 9.50799 74.7312 9.41466 75.0112 9.22799C75.3006 9.04133 75.5572 8.80333 75.7812 8.51399L76.7472 9.59199C76.4486 10.012 76.0379 10.3433 75.5152 10.586C75.0019 10.8193 74.4046 10.936 73.7232 10.936ZM73.6952 4.63599C73.2192 4.63599 72.8412 4.79466 72.5612 5.11199C72.2812 5.42933 72.1412 5.83999 72.1412 6.34399V6.45599H75.1372V6.32999C75.1372 5.82599 75.0112 5.41999 74.7592 5.11199C74.5166 4.79466 74.1619 4.63599 73.6952 4.63599Z" fill="#161616"/>
<path d="M66.6695 3.75409H66.6135L65.8575 5.30809L63.8555 9.00409L61.8535 5.30809L61.0975 3.75409H61.0415V10.7681H59.2915V0.996094H61.3775L63.8835 5.77009H63.9395L66.4175 0.996094H68.4195V10.7681H66.6695V3.75409Z" fill="#161616"/>
<path d="M50.625 0.408203H52.417V4.6642H52.473C52.6037 4.2442 52.851 3.91287 53.215 3.6702C53.579 3.4182 54.0037 3.2922 54.489 3.2922C55.4223 3.2922 56.1317 3.62354 56.617 4.2862C57.1117 4.93954 57.359 5.87754 57.359 7.1002C57.359 8.3322 57.1117 9.27954 56.617 9.9422C56.1317 10.6049 55.4223 10.9362 54.489 10.9362C54.0037 10.9362 53.579 10.8102 53.215 10.5582C52.8603 10.3062 52.613 9.9702 52.473 9.5502H52.417V10.7682H50.625V0.408203ZM53.915 9.4522C54.3817 9.4522 54.7597 9.2982 55.049 8.9902C55.3383 8.6822 55.483 8.26687 55.483 7.7442V6.4842C55.483 5.96154 55.3383 5.5462 55.049 5.2382C54.7597 4.92087 54.3817 4.7622 53.915 4.7622C53.4857 4.7622 53.1263 4.86954 52.837 5.0842C52.557 5.29887 52.417 5.58354 52.417 5.9382V8.2622C52.417 8.64487 52.557 8.93887 52.837 9.1442C53.1263 9.34954 53.4857 9.4522 53.915 9.4522Z" fill="#161616"/>
<path d="M45.6123 10.936C45.071 10.936 44.5857 10.8473 44.1563 10.67C43.7363 10.4833 43.377 10.2267 43.0783 9.89999C42.789 9.56399 42.565 9.16266 42.4063 8.69599C42.2477 8.21999 42.1683 7.68799 42.1683 7.09999C42.1683 6.52133 42.243 5.99866 42.3923 5.53199C42.551 5.06533 42.775 4.66866 43.0643 4.34199C43.3537 4.00599 43.7083 3.74933 44.1283 3.57199C44.5483 3.38533 45.0243 3.29199 45.5563 3.29199C46.1257 3.29199 46.6203 3.38999 47.0403 3.58599C47.4603 3.78199 47.8057 4.04799 48.0763 4.38399C48.347 4.71999 48.5477 5.11199 48.6783 5.55999C48.8183 5.99866 48.8883 6.46999 48.8883 6.97399V7.56199H44.0303V7.74399C44.0303 8.27599 44.1797 8.70533 44.4783 9.03199C44.777 9.34933 45.2203 9.50799 45.8083 9.50799C46.2563 9.50799 46.6203 9.41466 46.9003 9.22799C47.1897 9.04133 47.4463 8.80333 47.6703 8.51399L48.6363 9.59199C48.3377 10.012 47.927 10.3433 47.4043 10.586C46.891 10.8193 46.2937 10.936 45.6123 10.936ZM45.5843 4.63599C45.1083 4.63599 44.7303 4.79466 44.4503 5.11199C44.1703 5.42933 44.0303 5.83999 44.0303 6.34399V6.45599H47.0263V6.32999C47.0263 5.82599 46.9003 5.41999 46.6483 5.11199C46.4057 4.79466 46.051 4.63599 45.5843 4.63599Z" fill="#161616"/>
<path d="M30.4367 3.45996H32.1587L32.9007 6.46996L33.4747 8.97596H33.5307L34.2027 6.46996L35.0567 3.45996H36.6807L37.5627 6.46996L38.2487 8.97596H38.3047L38.8787 6.46996L39.6067 3.45996H41.2727L39.2707 10.768H37.3387L36.4007 7.54796L35.8547 5.55996H35.8127L35.2807 7.54796L34.3567 10.768H32.4527L30.4367 3.45996Z" fill="#161616"/>
</svg>
