<svg width="247" height="18" viewBox="0 0 247 18" fill="none" xmlns="http://www.w3.org/2000/svg">
<path d="M24.1089 5.76803H24.0389L23.2129 7.40603L20.8749 11.662L18.5369 7.40603L17.7109 5.76803H17.6409V14H16.4929V4.22803H18.0609L20.8609 9.49203H20.9309L23.7449 4.22803H25.2569V14H24.1089V5.76803Z" fill="white"/>
<path d="M7.18652 4.22803H11.2045C12.0165 4.22803 12.6512 4.45669 13.1085 4.91403C13.5752 5.37136 13.8085 5.98269 13.8085 6.74803C13.8085 7.11203 13.7572 7.42003 13.6545 7.67203C13.5519 7.92403 13.4212 8.13403 13.2625 8.30203C13.1039 8.46069 12.9312 8.58203 12.7445 8.66603C12.5579 8.74069 12.3852 8.79203 12.2265 8.82003V8.90403C12.4039 8.91336 12.5999 8.96003 12.8145 9.04403C13.0385 9.12803 13.2485 9.26336 13.4445 9.45003C13.6405 9.62736 13.8039 9.86069 13.9345 10.15C14.0745 10.43 14.1445 10.7707 14.1445 11.172C14.1445 11.5734 14.0792 11.9467 13.9485 12.292C13.8272 12.6374 13.6545 12.936 13.4305 13.188C13.2065 13.44 12.9405 13.6407 12.6325 13.79C12.3245 13.93 11.9885 14 11.6245 14H7.18652V4.22803ZM8.36252 12.964H11.2605C11.7645 12.964 12.1612 12.838 12.4505 12.586C12.7399 12.3247 12.8845 11.9467 12.8845 11.452V10.976C12.8845 10.4814 12.7399 10.108 12.4505 9.85603C12.1612 9.59469 11.7645 9.46403 11.2605 9.46403H8.36252V12.964ZM8.36252 8.45603H11.0645C11.5312 8.45603 11.8952 8.33936 12.1565 8.10603C12.4179 7.87269 12.5485 7.53669 12.5485 7.09803V6.62203C12.5485 6.18336 12.4179 5.84736 12.1565 5.61403C11.8952 5.38069 11.5312 5.26403 11.0645 5.26403H8.36252V8.45603Z" fill="white"/>
<path d="M0.958984 14V13.02H2.33098V5.20803H0.958984V4.22803H4.87898V5.20803H3.50698V13.02H4.87898V14H0.958984Z" fill="white"/>
<path d="M235.887 14V6.69202H237.679V8.20402H237.749C237.796 8.00802 237.866 7.82135 237.959 7.64402C238.062 7.45735 238.192 7.29402 238.351 7.15402C238.51 7.01402 238.696 6.90202 238.911 6.81802C239.135 6.73402 239.392 6.69202 239.681 6.69202H240.073V8.38602H239.513C238.906 8.38602 238.449 8.47468 238.141 8.65202C237.833 8.82935 237.679 9.11868 237.679 9.52002V14H235.887Z" fill="white"/>
<path d="M230.874 14.168C230.333 14.168 229.848 14.0794 229.418 13.902C228.998 13.7154 228.639 13.4587 228.34 13.132C228.051 12.796 227.827 12.3947 227.668 11.928C227.51 11.452 227.43 10.92 227.43 10.332C227.43 9.75338 227.505 9.23072 227.654 8.76405C227.813 8.29738 228.037 7.90072 228.326 7.57405C228.616 7.23805 228.97 6.98138 229.39 6.80405C229.81 6.61738 230.286 6.52405 230.818 6.52405C231.388 6.52405 231.882 6.62205 232.302 6.81805C232.722 7.01405 233.068 7.28005 233.338 7.61605C233.609 7.95205 233.81 8.34405 233.94 8.79205C234.08 9.23072 234.15 9.70205 234.15 10.206V10.794H229.292V10.976C229.292 11.508 229.442 11.9374 229.74 12.264C230.039 12.5814 230.482 12.74 231.07 12.74C231.518 12.74 231.882 12.6467 232.162 12.46C232.452 12.2734 232.708 12.0354 232.932 11.746L233.898 12.824C233.6 13.244 233.189 13.5754 232.666 13.818C232.153 14.0514 231.556 14.168 230.874 14.168ZM230.846 7.86805C230.37 7.86805 229.992 8.02672 229.712 8.34405C229.432 8.66138 229.292 9.07205 229.292 9.57605V9.68805H232.288V9.56205C232.288 9.05805 232.162 8.65205 231.91 8.34405C231.668 8.02672 231.313 7.86805 230.846 7.86805Z" fill="white"/>
<path d="M222.096 14L219.66 6.69202H221.424L222.446 9.84202L223.16 12.446H223.258L223.972 9.84202L224.966 6.69202H226.674L224.224 14H222.096Z" fill="white"/>
<path d="M214.762 14V6.69202H216.554V8.20402H216.624C216.671 8.00802 216.741 7.82135 216.834 7.64402C216.937 7.45735 217.068 7.29402 217.226 7.15402C217.385 7.01402 217.572 6.90202 217.786 6.81802C218.01 6.73402 218.267 6.69202 218.556 6.69202H218.948V8.38602H218.388C217.782 8.38602 217.324 8.47468 217.016 8.65202C216.708 8.82935 216.554 9.11868 216.554 9.52002V14H214.762Z" fill="white"/>
<path d="M209.75 14.168C209.208 14.168 208.723 14.0794 208.294 13.902C207.874 13.7154 207.514 13.4587 207.216 13.132C206.926 12.796 206.702 12.3947 206.544 11.928C206.385 11.452 206.306 10.92 206.306 10.332C206.306 9.75338 206.38 9.23072 206.53 8.76405C206.688 8.29738 206.912 7.90072 207.202 7.57405C207.491 7.23805 207.846 6.98138 208.266 6.80405C208.686 6.61738 209.162 6.52405 209.694 6.52405C210.263 6.52405 210.758 6.62205 211.178 6.81805C211.598 7.01405 211.943 7.28005 212.214 7.61605C212.484 7.95205 212.685 8.34405 212.816 8.79205C212.956 9.23072 213.026 9.70205 213.026 10.206V10.794H208.168V10.976C208.168 11.508 208.317 11.9374 208.616 12.264C208.914 12.5814 209.358 12.74 209.946 12.74C210.394 12.74 210.758 12.6467 211.038 12.46C211.327 12.2734 211.584 12.0354 211.808 11.746L212.774 12.824C212.475 13.244 212.064 13.5754 211.542 13.818C211.028 14.0514 210.431 14.168 209.75 14.168ZM209.722 7.86805C209.246 7.86805 208.868 8.02672 208.588 8.34405C208.308 8.66138 208.168 9.07205 208.168 9.57605V9.68805H211.164V9.56205C211.164 9.05805 211.038 8.65205 210.786 8.34405C210.543 8.02672 210.188 7.86805 209.722 7.86805Z" fill="white"/>
<path d="M201.227 14.1681C200.387 14.1681 199.673 14.0187 199.085 13.7201C198.507 13.4214 198.007 13.0294 197.587 12.5441L198.833 11.3401C199.169 11.7321 199.543 12.0307 199.953 12.2361C200.373 12.4414 200.835 12.5441 201.339 12.5441C201.909 12.5441 202.338 12.4227 202.627 12.1801C202.917 11.9281 203.061 11.5921 203.061 11.1721C203.061 10.8454 202.968 10.5794 202.781 10.3741C202.595 10.1687 202.245 10.0194 201.731 9.92606L200.807 9.78606C198.857 9.47806 197.881 8.53073 197.881 6.94406C197.881 6.50539 197.961 6.10873 198.119 5.75406C198.287 5.39939 198.525 5.09606 198.833 4.84406C199.141 4.59206 199.51 4.40073 199.939 4.27006C200.378 4.13006 200.873 4.06006 201.423 4.06006C202.161 4.06006 202.805 4.18139 203.355 4.42406C203.906 4.66673 204.377 5.02606 204.769 5.50206L203.509 6.69206C203.267 6.39339 202.973 6.15073 202.627 5.96406C202.282 5.77739 201.848 5.68406 201.325 5.68406C200.793 5.68406 200.392 5.78673 200.121 5.99206C199.86 6.18806 199.729 6.46806 199.729 6.83206C199.729 7.20539 199.837 7.48073 200.051 7.65806C200.266 7.83539 200.611 7.96606 201.087 8.05006L201.997 8.21806C202.987 8.39539 203.715 8.71273 204.181 9.17006C204.657 9.61806 204.895 10.2481 204.895 11.0601C204.895 11.5267 204.811 11.9514 204.643 12.3341C204.485 12.7074 204.247 13.0341 203.929 13.3141C203.621 13.5847 203.239 13.7947 202.781 13.9441C202.333 14.0934 201.815 14.1681 201.227 14.1681Z" fill="white"/>
<path d="M186.218 14V6.69205H188.01V7.91005H188.08C188.229 7.51805 188.463 7.19138 188.78 6.93005C189.107 6.65938 189.555 6.52405 190.124 6.52405C190.88 6.52405 191.459 6.77138 191.86 7.26605C192.261 7.76071 192.462 8.46538 192.462 9.38005V14H190.67V9.56205C190.67 9.03938 190.577 8.64738 190.39 8.38605C190.203 8.12472 189.895 7.99405 189.466 7.99405C189.279 7.99405 189.097 8.02205 188.92 8.07805C188.752 8.12472 188.598 8.19938 188.458 8.30205C188.327 8.39538 188.22 8.51671 188.136 8.66605C188.052 8.80605 188.01 8.97405 188.01 9.17005V14H186.218Z" fill="white"/>
<path d="M181.068 14.168C180.545 14.168 180.074 14.0794 179.654 13.902C179.243 13.7247 178.888 13.468 178.589 13.132C178.3 12.796 178.076 12.3947 177.917 11.928C177.759 11.452 177.68 10.92 177.68 10.332C177.68 9.74405 177.759 9.21672 177.917 8.75005C178.076 8.28338 178.3 7.88672 178.589 7.56005C178.888 7.22405 179.243 6.96738 179.654 6.79005C180.074 6.61271 180.545 6.52405 181.068 6.52405C181.59 6.52405 182.062 6.61271 182.482 6.79005C182.902 6.96738 183.256 7.22405 183.546 7.56005C183.844 7.88672 184.073 8.28338 184.232 8.75005C184.39 9.21672 184.469 9.74405 184.469 10.332C184.469 10.92 184.39 11.452 184.232 11.928C184.073 12.3947 183.844 12.796 183.546 13.132C183.256 13.468 182.902 13.7247 182.482 13.902C182.062 14.0794 181.59 14.168 181.068 14.168ZM181.068 12.726C181.544 12.726 181.917 12.5814 182.188 12.292C182.458 12.0027 182.594 11.578 182.594 11.018V9.66005C182.594 9.10938 182.458 8.68938 182.188 8.40005C181.917 8.11071 181.544 7.96605 181.068 7.96605C180.601 7.96605 180.232 8.11071 179.962 8.40005C179.691 8.68938 179.555 9.10938 179.555 9.66005V11.018C179.555 11.578 179.691 12.0027 179.962 12.292C180.232 12.5814 180.601 12.726 181.068 12.726Z" fill="white"/>
<path d="M175.036 5.62803C174.663 5.62803 174.392 5.54403 174.224 5.37603C174.066 5.20803 173.986 4.99336 173.986 4.73203V4.45203C173.986 4.1907 174.066 3.97603 174.224 3.80803C174.392 3.64003 174.663 3.55603 175.036 3.55603C175.4 3.55603 175.666 3.64003 175.834 3.80803C176.002 3.97603 176.086 4.1907 176.086 4.45203V4.73203C176.086 4.99336 176.002 5.20803 175.834 5.37603C175.666 5.54403 175.4 5.62803 175.036 5.62803ZM174.14 6.69203H175.932V14H174.14V6.69203Z" fill="white"/>
<path d="M171.026 14.0001C170.41 14.0001 169.939 13.8414 169.612 13.5241C169.295 13.1974 169.136 12.7354 169.136 12.1381V8.12006H168.058V6.69206H168.618C168.889 6.69206 169.071 6.6314 169.164 6.51006C169.267 6.3794 169.318 6.18806 169.318 5.93606V4.69006H170.928V6.69206H172.426V8.12006H170.928V12.5721H172.314V14.0001H171.026Z" fill="white"/>
<path d="M166.194 14C165.802 14 165.49 13.888 165.256 13.664C165.032 13.4307 164.892 13.1227 164.836 12.74H164.752C164.631 13.216 164.384 13.5754 164.01 13.818C163.637 14.0514 163.175 14.168 162.624 14.168C161.878 14.168 161.304 13.972 160.902 13.58C160.501 13.188 160.3 12.6654 160.3 12.012C160.3 11.256 160.571 10.696 161.112 10.332C161.654 9.95872 162.424 9.77205 163.422 9.77205H164.668V9.24005C164.668 8.82938 164.561 8.51205 164.346 8.28805C164.132 8.06405 163.786 7.95205 163.31 7.95205C162.89 7.95205 162.55 8.04538 162.288 8.23205C162.036 8.40938 161.822 8.62405 161.644 8.87605L160.58 7.92405C160.851 7.50405 161.21 7.16805 161.658 6.91605C162.106 6.65471 162.699 6.52405 163.436 6.52405C164.426 6.52405 165.177 6.74805 165.69 7.19605C166.204 7.64405 166.46 8.28805 166.46 9.12805V12.572H167.188V14H166.194ZM163.226 12.866C163.628 12.866 163.968 12.7774 164.248 12.6C164.528 12.4227 164.668 12.1614 164.668 11.816V10.85H163.52C162.587 10.85 162.12 11.1487 162.12 11.746V11.984C162.12 12.2827 162.214 12.5067 162.4 12.656C162.596 12.796 162.872 12.866 163.226 12.866Z" fill="white"/>
<path d="M155.313 14V6.69202H157.105V8.20402H157.175C157.221 8.00802 157.291 7.82135 157.385 7.64402C157.487 7.45735 157.618 7.29402 157.777 7.15402C157.935 7.01402 158.122 6.90202 158.337 6.81802C158.561 6.73402 158.817 6.69202 159.107 6.69202H159.499V8.38602H158.939C158.332 8.38602 157.875 8.47468 157.567 8.65202C157.259 8.82935 157.105 9.11868 157.105 9.52002V14H155.313Z" fill="white"/>
<path d="M154.118 14.6161C154.118 14.9987 154.048 15.3347 153.908 15.6241C153.777 15.9227 153.558 16.1701 153.25 16.3661C152.942 16.5621 152.545 16.7114 152.06 16.8141C151.574 16.9167 150.982 16.9681 150.282 16.9681C149.666 16.9681 149.143 16.9261 148.714 16.8421C148.284 16.7674 147.93 16.6554 147.65 16.5061C147.379 16.3661 147.183 16.1887 147.062 15.9741C146.94 15.7594 146.88 15.5167 146.88 15.2461C146.88 14.8354 146.992 14.5134 147.216 14.2801C147.449 14.0561 147.771 13.9114 148.182 13.8461V13.6921C147.883 13.6174 147.65 13.4727 147.482 13.2581C147.323 13.0341 147.244 12.7727 147.244 12.4741C147.244 12.2874 147.281 12.1241 147.356 11.9841C147.43 11.8347 147.528 11.7087 147.65 11.6061C147.78 11.5034 147.925 11.4194 148.084 11.3541C148.242 11.2794 148.41 11.2234 148.588 11.1861V11.1301C148.14 10.9247 147.804 10.6401 147.58 10.2761C147.365 9.91205 147.258 9.48739 147.258 9.00205C147.258 8.25539 147.514 7.65805 148.028 7.21005C148.541 6.75272 149.292 6.52405 150.282 6.52405C150.506 6.52405 150.725 6.53805 150.94 6.56605C151.164 6.59405 151.369 6.64072 151.556 6.70605V6.46805C151.556 5.75872 151.901 5.40405 152.592 5.40405H153.726V6.77605H152.172V6.97205C152.554 7.18672 152.839 7.46672 153.026 7.81205C153.212 8.15739 153.306 8.55405 153.306 9.00205C153.306 9.73939 153.049 10.3321 152.536 10.7801C152.032 11.2281 151.28 11.4521 150.282 11.4521C149.852 11.4521 149.479 11.4101 149.162 11.3261C149.022 11.3914 148.9 11.4801 148.798 11.5921C148.695 11.6947 148.644 11.8254 148.644 11.9841C148.644 12.3481 148.961 12.5301 149.596 12.5301H151.556C152.452 12.5301 153.1 12.7167 153.502 13.0901C153.912 13.4541 154.118 13.9627 154.118 14.6161ZM152.438 14.8261C152.438 14.5927 152.344 14.4107 152.158 14.2801C151.971 14.1494 151.649 14.0841 151.192 14.0841H148.7C148.448 14.2707 148.322 14.5227 148.322 14.8401C148.322 15.1201 148.438 15.3394 148.672 15.4981C148.905 15.6567 149.302 15.7361 149.862 15.7361H150.758C151.346 15.7361 151.77 15.6614 152.032 15.5121C152.302 15.3627 152.438 15.1341 152.438 14.8261ZM150.282 10.2341C151.159 10.2341 151.598 9.86072 151.598 9.11405V8.87605C151.598 8.12939 151.159 7.75605 150.282 7.75605C149.404 7.75605 148.966 8.12939 148.966 8.87605V9.11405C148.966 9.86072 149.404 10.2341 150.282 10.2341Z" fill="white"/>
<path d="M142.511 14.168C141.97 14.168 141.484 14.0794 141.055 13.902C140.635 13.7154 140.276 13.4587 139.977 13.132C139.688 12.796 139.464 12.3947 139.305 11.928C139.146 11.452 139.067 10.92 139.067 10.332C139.067 9.75338 139.142 9.23072 139.291 8.76405C139.45 8.29738 139.674 7.90072 139.963 7.57405C140.252 7.23805 140.607 6.98138 141.027 6.80405C141.447 6.61738 141.923 6.52405 142.455 6.52405C143.024 6.52405 143.519 6.62205 143.939 6.81805C144.359 7.01405 144.704 7.28005 144.975 7.61605C145.246 7.95205 145.446 8.34405 145.577 8.79205C145.717 9.23072 145.787 9.70205 145.787 10.206V10.794H140.929V10.976C140.929 11.508 141.078 11.9374 141.377 12.264C141.676 12.5814 142.119 12.74 142.707 12.74C143.155 12.74 143.519 12.6467 143.799 12.46C144.088 12.2734 144.345 12.0354 144.569 11.746L145.535 12.824C145.236 13.244 144.826 13.5754 144.303 13.818C143.79 14.0514 143.192 14.168 142.511 14.168ZM142.483 7.86805C142.007 7.86805 141.629 8.02672 141.349 8.34405C141.069 8.66138 140.929 9.07205 140.929 9.57605V9.68805H143.925V9.56205C143.925 9.05805 143.799 8.65205 143.547 8.34405C143.304 8.02672 142.95 7.86805 142.483 7.86805Z" fill="white"/>
<path d="M136.497 14.0001C135.881 14.0001 135.41 13.8414 135.083 13.5241C134.766 13.1974 134.607 12.7354 134.607 12.1381V8.12006H133.529V6.69206H134.089C134.36 6.69206 134.542 6.6314 134.635 6.51006C134.738 6.3794 134.789 6.18806 134.789 5.93606V4.69006H136.399V6.69206H137.897V8.12006H136.399V12.5721H137.785V14.0001H136.497Z" fill="white"/>
<path d="M125.825 14V6.69205H127.617V7.91005H127.687C127.836 7.51805 128.07 7.19138 128.387 6.93005C128.714 6.65938 129.162 6.52405 129.731 6.52405C130.487 6.52405 131.066 6.77138 131.467 7.26605C131.868 7.76071 132.069 8.46538 132.069 9.38005V14H130.277V9.56205C130.277 9.03938 130.184 8.64738 129.997 8.38605C129.81 8.12472 129.502 7.99405 129.073 7.99405C128.886 7.99405 128.704 8.02205 128.527 8.07805C128.359 8.12472 128.205 8.19938 128.065 8.30205C127.934 8.39538 127.827 8.51671 127.743 8.66605C127.659 8.80605 127.617 8.97405 127.617 9.17005V14H125.825Z" fill="white"/>
<path d="M119.451 14V12.516H120.739V5.71203H119.451V4.22803H123.889V5.71203H122.587V12.516H123.889V14H119.451Z" fill="white"/>
<path d="M111.524 14.168C110.824 14.168 110.236 14.0514 109.76 13.818C109.284 13.5754 108.864 13.244 108.5 12.824L109.592 11.76C109.863 12.068 110.157 12.3107 110.474 12.488C110.801 12.6654 111.174 12.754 111.594 12.754C112.024 12.754 112.332 12.6794 112.518 12.53C112.714 12.3807 112.812 12.1754 112.812 11.914C112.812 11.6994 112.742 11.5314 112.602 11.41C112.472 11.2794 112.243 11.1907 111.916 11.144L111.188 11.046C110.395 10.9434 109.788 10.7194 109.368 10.374C108.958 10.0194 108.752 9.50605 108.752 8.83405C108.752 8.47938 108.818 8.16205 108.948 7.88205C109.079 7.59272 109.266 7.35005 109.508 7.15405C109.751 6.94871 110.04 6.79472 110.376 6.69205C110.722 6.58005 111.104 6.52405 111.524 6.52405C111.879 6.52405 112.192 6.55205 112.462 6.60805C112.742 6.65472 112.994 6.72938 113.218 6.83205C113.442 6.92538 113.648 7.04671 113.834 7.19605C114.021 7.33605 114.203 7.49472 114.38 7.67205L113.33 8.72205C113.116 8.49805 112.859 8.31138 112.56 8.16205C112.262 8.01271 111.935 7.93805 111.58 7.93805C111.188 7.93805 110.904 8.00805 110.726 8.14805C110.558 8.28805 110.474 8.47005 110.474 8.69405C110.474 8.93672 110.544 9.12338 110.684 9.25405C110.834 9.37538 111.081 9.46405 111.426 9.52005L112.168 9.61805C113.746 9.84205 114.534 10.5607 114.534 11.774C114.534 12.1287 114.46 12.4554 114.31 12.754C114.17 13.0434 113.97 13.2954 113.708 13.51C113.447 13.7154 113.13 13.8787 112.756 14C112.392 14.112 111.982 14.168 111.524 14.168Z" fill="white"/>
<path d="M105.112 12.782H105.042C104.911 13.202 104.664 13.538 104.3 13.79C103.936 14.042 103.511 14.168 103.026 14.168C102.102 14.168 101.392 13.8367 100.898 13.174C100.412 12.5113 100.17 11.564 100.17 10.332C100.17 9.10935 100.412 8.17135 100.898 7.51801C101.392 6.85535 102.102 6.52401 103.026 6.52401C103.511 6.52401 103.936 6.65001 104.3 6.90201C104.664 7.14468 104.911 7.47601 105.042 7.89601H105.112V3.64001H106.904V14H105.112V12.782ZM103.6 12.684C104.029 12.684 104.388 12.5813 104.678 12.376C104.967 12.1707 105.112 11.8767 105.112 11.494V9.17001C105.112 8.81535 104.967 8.53068 104.678 8.31601C104.388 8.10135 104.029 7.99401 103.6 7.99401C103.133 7.99401 102.755 8.15268 102.466 8.47002C102.186 8.77801 102.046 9.19335 102.046 9.71601V10.976C102.046 11.4987 102.186 11.914 102.466 12.222C102.755 12.53 103.133 12.684 103.6 12.684Z" fill="white"/>
<path d="M95.425 14.168C94.9023 14.168 94.431 14.0794 94.011 13.902C93.6003 13.7247 93.2457 13.468 92.947 13.132C92.6577 12.796 92.4337 12.3947 92.275 11.928C92.1163 11.452 92.037 10.92 92.037 10.332C92.037 9.74405 92.1163 9.21672 92.275 8.75005C92.4337 8.28338 92.6577 7.88672 92.947 7.56005C93.2457 7.22405 93.6003 6.96738 94.011 6.79005C94.431 6.61271 94.9023 6.52405 95.425 6.52405C95.9477 6.52405 96.419 6.61271 96.839 6.79005C97.259 6.96738 97.6137 7.22405 97.903 7.56005C98.2017 7.88672 98.4303 8.28338 98.589 8.75005C98.7477 9.21672 98.827 9.74405 98.827 10.332C98.827 10.92 98.7477 11.452 98.589 11.928C98.4303 12.3947 98.2017 12.796 97.903 13.132C97.6137 13.468 97.259 13.7247 96.839 13.902C96.419 14.0794 95.9477 14.168 95.425 14.168ZM95.425 12.726C95.901 12.726 96.2743 12.5814 96.545 12.292C96.8156 12.0027 96.951 11.578 96.951 11.018V9.66005C96.951 9.10938 96.8156 8.68938 96.545 8.40005C96.2743 8.11071 95.901 7.96605 95.425 7.96605C94.9583 7.96605 94.5897 8.11071 94.319 8.40005C94.0483 8.68938 93.913 9.10938 93.913 9.66005V11.018C93.913 11.578 94.0483 12.0027 94.319 12.292C94.5897 12.5814 94.9583 12.726 95.425 12.726Z" fill="white"/>
<path d="M84.1365 3.64001H85.9285V7.91001H85.9985C86.1479 7.51801 86.3812 7.19135 86.6985 6.93002C87.0252 6.65935 87.4732 6.52401 88.0425 6.52401C88.7985 6.52401 89.3772 6.77135 89.7785 7.26601C90.1799 7.76068 90.3805 8.46535 90.3805 9.38001V14H88.5885V9.56202C88.5885 9.03935 88.4952 8.64735 88.3085 8.38601C88.1219 8.12468 87.8139 7.99401 87.3845 7.99401C87.1979 7.99401 87.0159 8.02201 86.8385 8.07801C86.6705 8.12468 86.5165 8.19935 86.3765 8.30201C86.2459 8.39535 86.1385 8.51668 86.0545 8.66601C85.9705 8.80601 85.9285 8.97401 85.9285 9.17001V14H84.1365V3.64001Z" fill="white"/>
<path d="M81.0222 14.0001C80.4062 14.0001 79.9349 13.8414 79.6082 13.5241C79.2909 13.1974 79.1322 12.7354 79.1322 12.1381V8.12006H78.0542V6.69206H78.6142C78.8849 6.69206 79.0669 6.6314 79.1602 6.51006C79.2629 6.3794 79.3142 6.18806 79.3142 5.93606V4.69006H80.9242V6.69206H82.4222V8.12006H80.9242V12.5721H82.3102V14.0001H81.0222Z" fill="white"/>
<path d="M73.7276 14.168C73.1862 14.168 72.7009 14.0794 72.2716 13.902C71.8516 13.7154 71.4922 13.4587 71.1936 13.132C70.9042 12.796 70.6802 12.3947 70.5216 11.928C70.3629 11.452 70.2836 10.92 70.2836 10.332C70.2836 9.75338 70.3582 9.23072 70.5076 8.76405C70.6662 8.29738 70.8902 7.90072 71.1796 7.57405C71.4689 7.23805 71.8236 6.98138 72.2436 6.80405C72.6636 6.61738 73.1396 6.52405 73.6716 6.52405C74.2409 6.52405 74.7356 6.62205 75.1556 6.81805C75.5756 7.01405 75.9209 7.28005 76.1916 7.61605C76.4622 7.95205 76.6629 8.34405 76.7936 8.79205C76.9336 9.23072 77.0036 9.70205 77.0036 10.206V10.794H72.1456V10.976C72.1456 11.508 72.2949 11.9374 72.5936 12.264C72.8922 12.5814 73.3356 12.74 73.9236 12.74C74.3716 12.74 74.7356 12.6467 75.0156 12.46C75.3049 12.2734 75.5616 12.0354 75.7856 11.746L76.7516 12.824C76.4529 13.244 76.0422 13.5754 75.5196 13.818C75.0062 14.0514 74.4089 14.168 73.7276 14.168ZM73.6996 7.86805C73.2236 7.86805 72.8456 8.02672 72.5656 8.34405C72.2856 8.66138 72.1456 9.07205 72.1456 9.57605V9.68805H75.1416V9.56205C75.1416 9.05805 75.0156 8.65205 74.7636 8.34405C74.5209 8.02672 74.1662 7.86805 73.6996 7.86805Z" fill="white"/>
<path d="M66.6738 6.98603H66.6178L65.8618 8.54003L63.8598 12.236L61.8578 8.54003L61.1018 6.98603H61.0458V14H59.2958V4.22803H61.3818L63.8878 9.00203H63.9438L66.4218 4.22803H68.4238V14H66.6738V6.98603Z" fill="white"/>
<path d="M50.6293 3.64001H52.4213V7.89601H52.4773C52.608 7.47601 52.8553 7.14468 53.2193 6.90201C53.5833 6.65001 54.008 6.52401 54.4933 6.52401C55.4267 6.52401 56.136 6.85535 56.6213 7.51801C57.116 8.17135 57.3633 9.10935 57.3633 10.332C57.3633 11.564 57.116 12.5113 56.6213 13.174C56.136 13.8367 55.4267 14.168 54.4933 14.168C54.008 14.168 53.5833 14.042 53.2193 13.79C52.8647 13.538 52.6173 13.202 52.4773 12.782H52.4213V14H50.6293V3.64001ZM53.9193 12.684C54.386 12.684 54.764 12.53 55.0533 12.222C55.3427 11.914 55.4873 11.4987 55.4873 10.976V9.71601C55.4873 9.19335 55.3427 8.77801 55.0533 8.47002C54.764 8.15268 54.386 7.99401 53.9193 7.99401C53.49 7.99401 53.1307 8.10135 52.8413 8.31601C52.5613 8.53068 52.4213 8.81535 52.4213 9.17001V11.494C52.4213 11.8767 52.5613 12.1707 52.8413 12.376C53.1307 12.5813 53.49 12.684 53.9193 12.684Z" fill="white"/>
<path d="M45.6167 14.168C45.0753 14.168 44.59 14.0794 44.1607 13.902C43.7407 13.7154 43.3813 13.4587 43.0827 13.132C42.7933 12.796 42.5693 12.3947 42.4107 11.928C42.252 11.452 42.1727 10.92 42.1727 10.332C42.1727 9.75338 42.2473 9.23072 42.3967 8.76405C42.5553 8.29738 42.7793 7.90072 43.0687 7.57405C43.358 7.23805 43.7127 6.98138 44.1327 6.80405C44.5527 6.61738 45.0287 6.52405 45.5607 6.52405C46.13 6.52405 46.6247 6.62205 47.0447 6.81805C47.4647 7.01405 47.81 7.28005 48.0807 7.61605C48.3513 7.95205 48.552 8.34405 48.6827 8.79205C48.8227 9.23072 48.8927 9.70205 48.8927 10.206V10.794H44.0347V10.976C44.0347 11.508 44.184 11.9374 44.4827 12.264C44.7813 12.5814 45.2247 12.74 45.8127 12.74C46.2607 12.74 46.6247 12.6467 46.9047 12.46C47.194 12.2734 47.4507 12.0354 47.6747 11.746L48.6407 12.824C48.342 13.244 47.9313 13.5754 47.4087 13.818C46.8953 14.0514 46.298 14.168 45.6167 14.168ZM45.5887 7.86805C45.1127 7.86805 44.7347 8.02672 44.4547 8.34405C44.1747 8.66138 44.0347 9.07205 44.0347 9.57605V9.68805H47.0307V9.56205C47.0307 9.05805 46.9047 8.65205 46.6527 8.34405C46.41 8.02672 46.0553 7.86805 45.5887 7.86805Z" fill="white"/>
<path d="M30.441 6.69202H32.163L32.905 9.70202L33.479 12.208H33.535L34.207 9.70202L35.061 6.69202H36.685L37.567 9.70202L38.253 12.208H38.309L38.883 9.70202L39.611 6.69202H41.277L39.275 14H37.343L36.405 10.78L35.859 8.79202H35.817L35.285 10.78L34.361 14H32.457L30.441 6.69202Z" fill="white"/>
</svg>
